<svg xmlns="http://www.w3.org/2000/svg" width="17.5" height="17.5" viewBox="0 0 17.5 17.5">
  <path id="Path_56" data-name="Path 56" d="M17.5,3.625A1.875,1.875,0,0,0,15.625,1.75H1.875A1.875,1.875,0,0,0,0,3.625v13.75A1.875,1.875,0,0,0,1.875,19.25h13.75A1.875,1.875,0,0,0,17.5,17.375Zm-3.437.625A.937.937,0,0,1,15,5.188V9.562a.938.938,0,0,1-1.6.663l-1.25-1.25L4.512,16.613a.469.469,0,0,1-.663,0L2.637,15.4a.469.469,0,0,1,0-.663L10.275,7.1,9.026,5.85a.938.938,0,0,1,.663-1.6Z" transform="translate(0 -1.75)" fill="#efefed"/>
</svg>
