<svg xmlns="http://www.w3.org/2000/svg" width="58" height="58" viewBox="0 0 58 58">
  <g id="Group_62" data-name="Group 62" transform="translate(-563 -525)">
    <rect id="Rectangle_48" data-name="Rectangle 48" width="58" height="58" rx="8" transform="translate(563 525)" fill="#201a05"/>
    <path id="Path_32" data-name="Path 32" d="M36.208-5.891a17.779,17.779,0,0,0,4.148-4.276,16.581,16.581,0,0,1-4.763,1.28,8.249,8.249,0,0,0,3.636-4.558,16.283,16.283,0,0,1-5.249,2,8.251,8.251,0,0,0-6.043-2.612,8.267,8.267,0,0,0-8.271,8.271,9.337,9.337,0,0,0,.2,1.895A23.51,23.51,0,0,1,2.817-12.549,8.208,8.208,0,0,0,1.69-8.375,8.265,8.265,0,0,0,5.377-1.487a8.329,8.329,0,0,1-3.739-1.05v.1A8.272,8.272,0,0,0,8.271,5.683a8.745,8.745,0,0,1-2.177.282,10.424,10.424,0,0,1-1.562-.128,8.286,8.286,0,0,0,7.733,5.736A16.565,16.565,0,0,1,2,15.106,17.117,17.117,0,0,1,0,15a23.373,23.373,0,0,0,12.7,3.713c15.21,0,23.533-12.6,23.533-23.533C36.234-5.174,36.234-5.533,36.208-5.891Z" transform="translate(571 552.06)" fill="#fff"/>
  </g>
</svg>
