<svg xmlns="http://www.w3.org/2000/svg" width="58" height="58" viewBox="0 0 58 58">
  <g id="Group_63" data-name="Group 63" transform="translate(-470 -525)">
    <rect id="Rectangle_47" data-name="Rectangle 47" width="58" height="58" rx="8" transform="translate(470 525)" fill="#201a05"/>
    <path id="Path_31" data-name="Path 31" d="M17.667-6.026a9.056,9.056,0,1,0,9.057,9.057A9.042,9.042,0,0,0,17.667-6.026Zm0,14.944a5.888,5.888,0,1,1,5.888-5.888A5.9,5.9,0,0,1,17.667,8.918ZM29.206-6.4a2.113,2.113,0,0,0-2.112-2.112A2.113,2.113,0,0,0,24.982-6.4a2.107,2.107,0,0,0,2.112,2.112A2.107,2.107,0,0,0,29.206-6.4Zm6,2.144c-.134-2.83-.78-5.336-2.853-7.4s-4.572-2.711-7.4-2.853c-2.916-.166-11.658-.166-14.574,0-2.822.134-5.328.78-7.4,2.845S.263-7.09.121-4.26C-.044-1.344-.044,7.4.121,10.314c.134,2.83.78,5.336,2.853,7.4s4.572,2.711,7.4,2.853c2.916.165,11.658.165,14.574,0,2.83-.134,5.336-.78,7.4-2.853s2.711-4.572,2.853-7.4C35.37,7.4,35.37-1.336,35.2-4.252Zm-3.768,17.7A5.961,5.961,0,0,1,28.079,16.8c-2.325.922-7.843.709-10.412.709s-8.095.2-10.412-.709A5.961,5.961,0,0,1,3.9,13.443C2.975,11.118,3.188,5.6,3.188,3.031s-.2-8.095.709-10.412a5.961,5.961,0,0,1,3.358-3.358c2.325-.922,7.843-.709,10.412-.709s8.095-.2,10.412.709a5.961,5.961,0,0,1,3.358,3.358c.922,2.325.709,7.843.709,10.412S32.359,11.125,31.437,13.443Z" transform="translate(481.002 550.631)" fill="#fff"/>
  </g>
</svg>
