<svg xmlns="http://www.w3.org/2000/svg" width="165.149" height="38.73" viewBox="0 0 165.149 38.73">
  <g id="Group_93" data-name="Group 93" transform="translate(-1614.966 -37.386)">
    <path id="Path_3" data-name="Path 3" d="M8.539,39.6c-.309,0-.61,0-.916-.011a12.844,12.844,0,0,1-1.892-.165,5.957,5.957,0,0,1-1.677-.555A5.474,5.474,0,0,1,2.64,37.843a5.386,5.386,0,0,1-1.033-1.414,5.794,5.794,0,0,1-.55-1.678,12.565,12.565,0,0,1-.169-1.9c-.006-.214-.015-.925-.015-.925V8.539s.009-.7.015-.906a12.526,12.526,0,0,1,.168-1.9,5.83,5.83,0,0,1,.55-1.683A5.44,5.44,0,0,1,2.634,2.639,5.638,5.638,0,0,1,4.053,1.6a5.9,5.9,0,0,1,1.674-.551,12.747,12.747,0,0,1,1.9-.166L8.54.875H158.35l.925.013a12.544,12.544,0,0,1,1.882.165,6.013,6.013,0,0,1,1.692.555,5.663,5.663,0,0,1,2.445,2.45,5.835,5.835,0,0,1,.542,1.67,13.16,13.16,0,0,1,.176,1.911c0,.287,0,.595,0,.9.008.38.008.741.008,1.105v21.19c0,.368,0,.727-.008,1.089,0,.329,0,.631,0,.941a12.889,12.889,0,0,1-.173,1.877,5.811,5.811,0,0,1-.547,1.691,5.549,5.549,0,0,1-1.028,1.4,5.481,5.481,0,0,1-1.417,1.035,5.935,5.935,0,0,1-1.689.557,12.7,12.7,0,0,1-1.893.165c-.3.007-.607.011-.909.011l-1.1,0Z" transform="translate(1614.093 36.511)" fill="#2e2e2e"/>
    <g id="Group_92" data-name="Group 92">
      <g id="XMLID_632_" transform="translate(1621.693 44.011)">
        <path id="XMLID_662_" d="M32.49,29.5a5.393,5.393,0,0,1-3.423,3.071,11.091,11.091,0,0,1-3.079.324H14.523a11.092,11.092,0,0,1-3.079-.324A5.393,5.393,0,0,1,8.021,29.5a9.987,9.987,0,0,1-.5-3.611h0V14.425h0a9.987,9.987,0,0,1,.5-3.611,5.393,5.393,0,0,1,3.423-3.071,11.091,11.091,0,0,1,3.079-.324H25.988a11.092,11.092,0,0,1,3.079.324,5.393,5.393,0,0,1,3.423,3.071,9.987,9.987,0,0,1,.5,3.611V25.89A9.99,9.99,0,0,1,32.49,29.5Z" transform="translate(-7.517 -7.418)" fill="#797979" fill-rule="evenodd"/>
        <path id="XMLID_660_" d="M32.49,29.5a5.393,5.393,0,0,1-3.423,3.071,11.091,11.091,0,0,1-3.079.324H14.523a11.092,11.092,0,0,1-3.079-.324A5.393,5.393,0,0,1,8.021,29.5a9.987,9.987,0,0,1-.5-3.611h0V14.425h0a9.987,9.987,0,0,1,.5-3.611,5.393,5.393,0,0,1,3.423-3.071,11.091,11.091,0,0,1,3.079-.324H25.988a11.092,11.092,0,0,1,3.079.324,5.393,5.393,0,0,1,3.423,3.071,9.987,9.987,0,0,1,.5,3.611V25.89A9.99,9.99,0,0,1,32.49,29.5Z" transform="translate(-7.517 -7.418)" fill="none" fill-rule="evenodd"/>
        <g id="XMLID_648_" transform="translate(3.783 2.824)">
          <g id="Group_2" data-name="Group 2">
            <path id="Path_4" data-name="Path 4" d="M22.057,22.027a2.551,2.551,0,0,0-1.846-.662,2.551,2.551,0,0,0-1.847.662,1.171,1.171,0,0,0-.338.734,9.529,9.529,0,0,0,.042,1.927c.066.781.193,1.822.357,2.883a10.966,10.966,0,0,0,.3,1.454,1.442,1.442,0,0,0,1.487.886,1.442,1.442,0,0,0,1.487-.886,10.966,10.966,0,0,0,.3-1.454c.165-1.06.291-2.1.357-2.883a9.53,9.53,0,0,0,.042-1.927A1.172,1.172,0,0,0,22.057,22.027Zm-3.93-3.592a2.085,2.085,0,1,0,2.085-2.085A2.085,2.085,0,0,0,18.127,18.436Zm2.059-8.229a8.959,8.959,0,0,0-2.939,17.414.12.12,0,0,0,.159-.131c-.046-.307-.09-.615-.13-.918a.308.308,0,0,0-.181-.243,7.813,7.813,0,1,1,6.234,0,.308.308,0,0,0-.181.243c-.04.3-.084.611-.13.917a.12.12,0,0,0,.159.131,8.959,8.959,0,0,0-2.991-17.414Zm-.162,4.11a4.853,4.853,0,0,1,3.513,8.391A.371.371,0,0,0,23.42,23a8.585,8.585,0,0,1-.01,1.023.118.118,0,0,0,.184.1,6,6,0,1,0-6.755,0,.118.118,0,0,0,.184-.1A8.589,8.589,0,0,1,17.012,23a.371.371,0,0,0-.117-.291,4.853,4.853,0,0,1,3.129-8.391Z" transform="translate(-11.253 -10.207)" fill="#2e2e2e"/>
          </g>
        </g>
      </g>
      <g id="Group_3" data-name="Group 3" transform="translate(1652.91 55.494)">
        <path id="Path_5" data-name="Path 5" d="M46.321,27.936H41.529l-1.151,3.4h-2.03L42.887,18.76H45l4.539,12.574H47.471Zm-4.3-1.568h3.8l-1.873-5.516H43.9Z" transform="translate(-38.348 -18.76)" fill="#797979"/>
        <path id="Path_6" data-name="Path 6" d="M59.187,26.71c0,2.849-1.525,4.679-3.826,4.679a3.107,3.107,0,0,1-2.884-1.6h-.044v4.54H50.552v-12.2h1.821v1.525h.035a3.252,3.252,0,0,1,2.919-1.621C57.653,22.03,59.187,23.869,59.187,26.71Zm-1.934,0c0-1.856-.959-3.076-2.423-3.076-1.438,0-2.4,1.246-2.4,3.076,0,1.847.967,3.084,2.4,3.084C56.294,29.794,57.253,28.583,57.253,26.71Z" transform="translate(-38.195 -18.719)" fill="#797979"/>
        <path id="Path_7" data-name="Path 7" d="M69.152,26.71c0,2.849-1.525,4.679-3.826,4.679a3.108,3.108,0,0,1-2.884-1.6H62.4v4.54H60.517v-12.2h1.821v1.525h.035a3.252,3.252,0,0,1,2.919-1.621C67.618,22.03,69.152,23.869,69.152,26.71Zm-1.934,0c0-1.856-.959-3.076-2.423-3.076-1.438,0-2.4,1.246-2.4,3.076,0,1.847.967,3.084,2.4,3.084C66.259,29.794,67.218,28.583,67.218,26.71Z" transform="translate(-38.071 -18.719)" fill="#797979"/>
        <path id="Path_8" data-name="Path 8" d="M70.55,18.76h1.883V31.334H70.55Z" transform="translate(-37.945 -18.76)" fill="#797979"/>
        <path id="Path_9" data-name="Path 9" d="M82.187,28.6c-.253,1.664-1.874,2.806-3.947,2.806-2.667,0-4.322-1.787-4.322-4.653s1.664-4.74,4.243-4.74c2.536,0,4.131,1.742,4.131,4.522v.645H75.818v.114a2.388,2.388,0,0,0,2.466,2.6A2.074,2.074,0,0,0,80.4,28.6h1.787Zm-6.361-2.736H80.41a2.2,2.2,0,0,0-2.248-2.327A2.321,2.321,0,0,0,75.827,25.865Z" transform="translate(-37.903 -18.719)" fill="#797979"/>
        <path id="Path_10" data-name="Path 10" d="M92.145,18.76a3.946,3.946,0,0,1,4.139,4.131,3.989,3.989,0,0,1-4.2,4.147h-2.7v4.3H87.431V18.76ZM89.383,25.4h2.24a2.354,2.354,0,0,0,2.666-2.5,2.346,2.346,0,0,0-2.657-2.493H89.383V25.4Z" transform="translate(-37.734 -18.76)" fill="#797979"/>
        <path id="Path_11" data-name="Path 11" d="M96.854,26.71c0-2.884,1.7-4.7,4.348-4.7s4.349,1.812,4.349,4.7-1.682,4.7-4.349,4.7S96.854,29.6,96.854,26.71Zm6.779,0c0-1.979-.907-3.146-2.431-3.146S98.77,24.741,98.77,26.71c0,1.986.907,3.145,2.431,3.145S103.633,28.7,103.633,26.71Z" transform="translate(-37.617 -18.719)" fill="#797979"/>
        <path id="Path_12" data-name="Path 12" d="M106.747,26.751c0-2.832,1.559-4.68,3.833-4.68a3.092,3.092,0,0,1,2.875,1.621h.036V18.76h1.891V31.334h-1.83V29.775h-.035A3.127,3.127,0,0,1,110.6,31.43C108.306,31.43,106.747,29.583,106.747,26.751Zm1.926,0c0,1.882.959,3.084,2.423,3.084,1.447,0,2.414-1.22,2.414-3.084,0-1.848-.967-3.076-2.414-3.076C109.632,23.675,108.673,24.886,108.673,26.751Z" transform="translate(-37.493 -18.76)" fill="#797979"/>
        <path id="Path_13" data-name="Path 13" d="M123.264,25.281a2.024,2.024,0,0,0-2.16-1.69c-1.447,0-2.406,1.211-2.406,3.12,0,1.952.968,3.128,2.423,3.128a1.973,1.973,0,0,0,2.144-1.646h1.812a3.664,3.664,0,0,1-3.973,3.215c-2.614,0-4.322-1.787-4.322-4.7,0-2.85,1.708-4.7,4.3-4.7a3.685,3.685,0,0,1,3.974,3.267h-1.8Z" transform="translate(-37.368 -18.719)" fill="#797979"/>
        <path id="Path_14" data-name="Path 14" d="M126.113,28.688c0-1.6,1.228-2.571,3.406-2.7l2.509-.139v-.7c0-1.019-.67-1.595-1.811-1.595a1.752,1.752,0,0,0-1.926,1.29h-1.76c.052-1.656,1.594-2.832,3.738-2.832,2.187,0,3.634,1.193,3.634,3v6.283h-1.8V29.785h-.044a3.277,3.277,0,0,1-2.893,1.665A2.779,2.779,0,0,1,126.113,28.688Zm5.915-.828v-.706l-2.256.139c-1.124.07-1.76.558-1.76,1.342,0,.8.662,1.325,1.673,1.325A2.2,2.2,0,0,0,132.028,27.86Z" transform="translate(-37.251 -18.719)" fill="#797979"/>
        <path id="Path_15" data-name="Path 15" d="M139.04,22.022c2.031,0,3.485,1.123,3.529,2.744H140.8c-.078-.81-.766-1.306-1.812-1.306-1.019,0-1.7.47-1.7,1.185,0,.549.453.915,1.4,1.15l1.542.358c1.847.444,2.544,1.123,2.544,2.466,0,1.655-1.568,2.788-3.808,2.788-2.161,0-3.616-1.107-3.755-2.78h1.864c.132.88.837,1.351,1.979,1.351,1.124,0,1.83-.462,1.83-1.193,0-.567-.349-.871-1.307-1.115l-1.638-.4c-1.656-.4-2.493-1.247-2.493-2.518C135.451,23.129,136.906,22.022,139.04,22.022Z" transform="translate(-37.137 -18.719)" fill="#797979"/>
        <path id="Path_16" data-name="Path 16" d="M146.764,19.982v2.17h1.743v1.49h-1.743V28.7c0,.785.349,1.151,1.115,1.151a5.878,5.878,0,0,0,.619-.044v1.481a5.165,5.165,0,0,1-1.045.087c-1.856,0-2.58-.7-2.58-2.475V23.642H143.54v-1.49h1.333v-2.17Z" transform="translate(-37.033 -18.744)" fill="#797979"/>
        <path id="Path_17" data-name="Path 17" d="M153.49,22.022c2.031,0,3.485,1.123,3.529,2.744H155.25c-.078-.81-.766-1.306-1.812-1.306-1.019,0-1.7.47-1.7,1.185,0,.549.453.915,1.4,1.15l1.542.358c1.847.444,2.544,1.123,2.544,2.466,0,1.655-1.568,2.788-3.808,2.788-2.161,0-3.616-1.107-3.755-2.78h1.864c.132.88.837,1.351,1.979,1.351,1.124,0,1.83-.462,1.83-1.193,0-.567-.349-.871-1.307-1.115l-1.638-.4c-1.656-.4-2.493-1.247-2.493-2.518C149.9,23.129,151.355,22.022,153.49,22.022Z" transform="translate(-36.957 -18.719)" fill="#797979"/>
      </g>
      <g id="Group_4" data-name="Group 4" transform="translate(1653.809 44.884)">
        <path id="Path_18" data-name="Path 18" d="M43,14.736H39.236V8.694h.938v5.179H43Z" transform="translate(-39.236 -8.276)" fill="#797979"/>
        <path id="Path_19" data-name="Path 19" d="M44.035,8.834a.583.583,0,1,1,.582.548A.554.554,0,0,1,44.035,8.834Zm.134,1.348h.9v4.559h-.9Z" transform="translate(-39.176 -8.281)" fill="#797979"/>
        <path id="Path_20" data-name="Path 20" d="M48.154,10.071c1.026,0,1.7.477,1.783,1.281h-.862c-.084-.335-.41-.548-.921-.548s-.884.238-.884.594c0,.272.23.444.724.557l.758.175c.867.2,1.273.574,1.273,1.244,0,.858-.8,1.432-1.888,1.432s-1.792-.49-1.872-1.3h.9a.926.926,0,0,0,.992.569c.561,0,.959-.251.959-.615,0-.272-.214-.448-.67-.557l-.8-.184c-.867-.205-1.269-.594-1.269-1.273C46.383,10.64,47.124,10.071,48.154,10.071Z" transform="translate(-39.148 -8.258)" fill="#797979"/>
        <path id="Path_21" data-name="Path 21" d="M52.366,9.037v1.156h.988v.758h-.988V13.3c0,.478.2.687.645.687a3.014,3.014,0,0,0,.343-.021v.749a2.95,2.95,0,0,1-.49.046c-1,0-1.4-.352-1.4-1.231V10.951h-.724v-.758h.724V9.037Z" transform="translate(-39.092 -8.271)" fill="#797979"/>
        <path id="Path_22" data-name="Path 22" d="M58.3,13.487a1.852,1.852,0,0,1-1.976,1.319,2.071,2.071,0,0,1-2.106-2.353,2.1,2.1,0,0,1,2.1-2.382c1.269,0,2.035.867,2.035,2.3v.314h-3.22v.05a1.205,1.205,0,0,0,1.214,1.306,1.094,1.094,0,0,0,1.085-.553Zm-3.165-1.469h2.3a1.1,1.1,0,0,0-1.122-1.181A1.166,1.166,0,0,0,55.138,12.018Z" transform="translate(-39.049 -8.258)" fill="#797979"/>
        <path id="Path_23" data-name="Path 23" d="M59.5,10.159h.867v.724h.067a1.364,1.364,0,0,1,1.361-.812,1.483,1.483,0,0,1,1.579,1.7v2.951h-.9V11.993c0-.733-.318-1.1-.984-1.1A1.046,1.046,0,0,0,60.4,12.051v2.667h-.9V10.159Z" transform="translate(-38.983 -8.258)" fill="#797979"/>
        <path id="Path_24" data-name="Path 24" d="M66.918,12.437a2.16,2.16,0,1,1,4.3,0,2.16,2.16,0,1,1-4.3,0Zm3.375,0c0-.988-.444-1.566-1.223-1.566s-1.223.578-1.223,1.566.44,1.57,1.223,1.57S70.293,13.429,70.293,12.437Z" transform="translate(-38.89 -8.258)" fill="#797979"/>
        <path id="Path_25" data-name="Path 25" d="M72.357,10.159h.867v.724h.067a1.365,1.365,0,0,1,1.361-.812,1.483,1.483,0,0,1,1.579,1.7v2.951h-.9V11.993c0-.733-.318-1.1-.984-1.1a1.046,1.046,0,0,0-1.089,1.155v2.667h-.9Z" transform="translate(-38.822 -8.258)" fill="#797979"/>
      </g>
    </g>
  </g>
</svg>
