<svg id="XMLID_632_" xmlns="http://www.w3.org/2000/svg" xmlns:xlink="http://www.w3.org/1999/xlink" width="31.687" height="31.687" viewBox="0 0 31.687 31.687">
  <defs>
    <linearGradient id="linear-gradient" x1="0.5" x2="0.5" y2="1" gradientUnits="objectBoundingBox">
      <stop offset="0" stop-color="#f452ff"/>
      <stop offset="1" stop-color="#832bc1"/>
    </linearGradient>
  </defs>
  <path id="XMLID_662_" d="M38.577,34.882A6.707,6.707,0,0,1,34.319,38.7a13.794,13.794,0,0,1-3.83.4H16.231a13.8,13.8,0,0,1-3.83-.4,6.707,6.707,0,0,1-4.258-3.819,12.421,12.421,0,0,1-.627-4.491h0V16.132h0a12.421,12.421,0,0,1,.627-4.491A6.707,6.707,0,0,1,12.4,7.822a13.794,13.794,0,0,1,3.83-.4H30.49a13.8,13.8,0,0,1,3.83.4,6.707,6.707,0,0,1,4.258,3.819,12.421,12.421,0,0,1,.627,4.491V30.391A12.424,12.424,0,0,1,38.577,34.882Z" transform="translate(-7.517 -7.418)" fill-rule="evenodd" fill="url(#linear-gradient)"/>
  <path id="XMLID_660_" d="M38.577,34.882A6.707,6.707,0,0,1,34.319,38.7a13.794,13.794,0,0,1-3.83.4H16.231a13.8,13.8,0,0,1-3.83-.4,6.707,6.707,0,0,1-4.258-3.819,12.421,12.421,0,0,1-.627-4.491h0V16.132h0a12.421,12.421,0,0,1,.627-4.491A6.707,6.707,0,0,1,12.4,7.822a13.794,13.794,0,0,1,3.83-.4H30.49a13.8,13.8,0,0,1,3.83.4,6.707,6.707,0,0,1,4.258,3.819,12.421,12.421,0,0,1,.627,4.491V30.391A12.424,12.424,0,0,1,38.577,34.882Z" transform="translate(-7.517 -7.418)" fill="none" fill-rule="evenodd"/>
  <g id="XMLID_648_" transform="translate(4.705 3.512)">
    <g id="Group_2" data-name="Group 2">
      <path id="Path_4" data-name="Path 4" d="M24.69,24.908a3.173,3.173,0,0,0-2.3-.823,3.173,3.173,0,0,0-2.3.823,1.457,1.457,0,0,0-.421.912,11.852,11.852,0,0,0,.052,2.4c.083.971.24,2.266.444,3.585a13.638,13.638,0,0,0,.372,1.808,1.793,1.793,0,0,0,1.849,1.1,1.793,1.793,0,0,0,1.849-1.1,13.638,13.638,0,0,0,.372-1.808c.2-1.319.362-2.614.444-3.585a11.852,11.852,0,0,0,.052-2.4A1.457,1.457,0,0,0,24.69,24.908ZM19.8,20.441A2.593,2.593,0,1,0,22.4,17.848,2.593,2.593,0,0,0,19.8,20.441Zm2.561-10.234a11.143,11.143,0,0,0-3.656,21.658.149.149,0,0,0,.2-.162c-.057-.381-.112-.765-.161-1.142a.383.383,0,0,0-.226-.3,9.717,9.717,0,1,1,7.754,0,.383.383,0,0,0-.225.3c-.05.377-.1.76-.161,1.141a.149.149,0,0,0,.2.162,11.143,11.143,0,0,0-3.72-21.658Zm-.2,5.112a6.036,6.036,0,0,1,4.369,10.436.462.462,0,0,0-.145.363,10.677,10.677,0,0,1-.013,1.273.147.147,0,0,0,.229.13,7.465,7.465,0,1,0-8.4,0,.147.147,0,0,0,.228-.13,10.682,10.682,0,0,1-.013-1.273.462.462,0,0,0-.145-.362,6.036,6.036,0,0,1,3.891-10.436Z" transform="translate(-11.253 -10.207)" fill="#fff"/>
    </g>
  </g>
</svg>
