<svg xmlns="http://www.w3.org/2000/svg" width="27.494" height="27.328" viewBox="0 0 27.494 27.328">
  <path id="Path_30" data-name="Path 30" d="M27.775-1.722A13.745,13.745,0,0,0,14.028-15.469,13.745,13.745,0,0,0,.281-1.722a13.752,13.752,0,0,0,11.6,13.581V2.252H8.388V-1.722H11.88V-4.751c0-3.445,2.051-5.348,5.192-5.348a21.158,21.158,0,0,1,3.078.268v3.381H18.416A1.987,1.987,0,0,0,16.176-4.3v2.58h3.813l-.61,3.974h-3.2v9.607A13.752,13.752,0,0,0,27.775-1.722Z" transform="translate(-0.281 15.469)" fill="#bcbbb4"/>
</svg>
