<svg xmlns="http://www.w3.org/2000/svg" width="151.308" height="37.908" viewBox="0 0 151.308 37.908">
  <g id="Group_94" data-name="Group 94" transform="translate(-1257.115 -38.525)">
    <g id="Rectangle-Solid" transform="translate(1257.115 38.525)">
      <path id="Rectangle" d="M9.072,0H142.236a9.072,9.072,0,0,1,9.072,9.072V28.836a9.072,9.072,0,0,1-9.072,9.072H9.072A9.072,9.072,0,0,1,0,28.836V9.072A9.072,9.072,0,0,1,9.072,0Z" fill="#2e2e2e"/>
    </g>
    <g id="Group_90" data-name="Group 90">
      <g id="logo_podcasts_192px" transform="translate(1262.907 44.316)">
        <rect id="Rectangle-path" width="27.337" height="27.337" fill="none"/>
        <path id="Shape" d="M2.691,11.109a1.565,1.565,0,0,0-1.566,1.566v1.709a1.566,1.566,0,0,0,3.132,0V12.676A1.565,1.565,0,0,0,2.691,11.109Z" transform="translate(0.014 0.139)" fill="#797979"/>
        <path id="Shape-2" data-name="Shape" d="M24.347,11.109a1.565,1.565,0,0,0-1.566,1.566v1.709a1.566,1.566,0,0,0,3.132,0V12.676A1.565,1.565,0,0,0,24.347,11.109Z" transform="translate(0.285 0.139)" fill="#797979"/>
        <path id="Shape-3" data-name="Shape" d="M8.035,16.172a1.565,1.565,0,0,0-1.566,1.566v1.709a1.566,1.566,0,0,0,3.132,0V17.738A1.565,1.565,0,0,0,8.035,16.172Z" transform="translate(0.081 0.202)" fill="#797979"/>
        <path id="Shape-4" data-name="Shape" d="M8.035,6.047A1.565,1.565,0,0,0,6.469,7.613V13.2h0a1.565,1.565,0,0,0,3.13,0h0V7.613A1.565,1.565,0,0,0,8.035,6.047Z" transform="translate(0.081 0.076)" fill="#797979"/>
        <path id="Shape-5" data-name="Shape" d="M19,6.047a1.565,1.565,0,0,0-1.566,1.566V9.322a1.566,1.566,0,0,0,3.132,0V7.613A1.565,1.565,0,0,0,19,6.047Z" transform="translate(0.218 0.076)" fill="#797979"/>
        <path id="Shape-6" data-name="Shape" d="M13.519,1.125a1.565,1.565,0,0,0-1.566,1.566V4.4a1.566,1.566,0,0,0,3.132,0V2.691A1.565,1.565,0,0,0,13.519,1.125Z" transform="translate(0.149 0.014)" fill="#797979"/>
        <path id="Shape-7" data-name="Shape" d="M13.519,21.094a1.565,1.565,0,0,0-1.566,1.566v1.709a1.566,1.566,0,1,0,3.132,0V22.66A1.565,1.565,0,0,0,13.519,21.094Z" transform="translate(0.149 0.264)" fill="#797979"/>
        <path id="Shape-8" data-name="Shape" d="M19,12.375a1.565,1.565,0,0,0-1.566,1.566v5.553a1.566,1.566,0,0,0,3.132,0V13.941A1.565,1.565,0,0,0,19,12.375Z" transform="translate(0.218 0.155)" fill="#797979"/>
        <path id="Shape-9" data-name="Shape" d="M15.086,9.019a1.566,1.566,0,0,0-3.132,0h0v9.112h0a1.566,1.566,0,1,0,3.132,0h0V9.019Z" transform="translate(0.149 0.093)" fill="#797979"/>
      </g>
      <g id="Group" transform="translate(1296.319 56.248)">
        <path id="Rectangle-path-2" data-name="Rectangle-path" d="M0,3.24H103.194V19.116H0Z" transform="translate(0 -2.779)" fill="none" fill-rule="evenodd"/>
        <path id="Podcasts" d="M50.359,14.185V10.046h2.225a3.311,3.311,0,0,0,1.573-.383,3,3,0,0,0,1.155-1.07,2.854,2.854,0,0,0,.432-1.552,2.854,2.854,0,0,0-.432-1.552,3,3,0,0,0-1.155-1.07,3.311,3.311,0,0,0-1.573-.383H49.168V14.185ZM52.613,8.9H50.359V5.184h2.254a1.851,1.851,0,0,1,1,.269,1.933,1.933,0,0,1,.673.695,1.775,1.775,0,0,1,0,1.786,1.933,1.933,0,0,1-.673.695,1.851,1.851,0,0,1-1,.269Zm7.116,5.514a3.647,3.647,0,0,0,1.914-.51,3.569,3.569,0,0,0,1.325-1.389,4.208,4.208,0,0,0,0-3.884A3.569,3.569,0,0,0,61.642,7.24a3.843,3.843,0,0,0-3.827,0,3.569,3.569,0,0,0-1.325,1.389,4.208,4.208,0,0,0,0,3.884A3.569,3.569,0,0,0,57.815,13.9,3.647,3.647,0,0,0,59.728,14.412Zm0-1.091a2.462,2.462,0,0,1-2.176-1.29,2.952,2.952,0,0,1-.347-1.46,2.952,2.952,0,0,1,.347-1.46,2.463,2.463,0,0,1,4.338,0,2.952,2.952,0,0,1,.347,1.46,2.952,2.952,0,0,1-.347,1.46,2.462,2.462,0,0,1-.921.957A2.43,2.43,0,0,1,59.728,13.321Zm7.981,1.091a2.928,2.928,0,0,0,1.488-.376,2.784,2.784,0,0,0,.992-.914h.057v1.063h1.148V4.036h-1.2V7.027l.057,1.006H70.19A2.735,2.735,0,0,0,69.2,7.1a2.927,2.927,0,0,0-1.488-.376,3.215,3.215,0,0,0-1.751.5A3.466,3.466,0,0,0,64.718,8.6a4.232,4.232,0,0,0-.454,1.97,4.22,4.22,0,0,0,.454,1.977,3.478,3.478,0,0,0,1.24,1.368A3.214,3.214,0,0,0,67.709,14.412Zm.142-1.091a2.207,2.207,0,0,1-1.177-.34,2.455,2.455,0,0,1-.886-.971,3.034,3.034,0,0,1-.333-1.439,3.035,3.035,0,0,1,.333-1.439,2.455,2.455,0,0,1,.886-.971,2.217,2.217,0,0,1,2.36,0,2.486,2.486,0,0,1,.879.964,3.024,3.024,0,0,1,.333,1.446,3.024,3.024,0,0,1-.333,1.446,2.485,2.485,0,0,1-.879.964A2.2,2.2,0,0,1,67.851,13.321Zm8.335,1.091a3.439,3.439,0,0,0,1.977-.553,3.182,3.182,0,0,0,1.184-1.446h0l-1.077-.454a2.12,2.12,0,0,1-.822,1.006,2.39,2.39,0,0,1-1.318.354,2.2,2.2,0,0,1-1.191-.347A2.52,2.52,0,0,1,74.052,12a2.993,2.993,0,0,1-.333-1.432,2.993,2.993,0,0,1,.333-1.432,2.52,2.52,0,0,1,.886-.971,2.2,2.2,0,0,1,1.191-.347,2.294,2.294,0,0,1,1.283.347,2.116,2.116,0,0,1,.8,1.014h0L79.3,8.728a2.988,2.988,0,0,0-1.141-1.453,3.43,3.43,0,0,0-1.977-.546,3.624,3.624,0,0,0-1.885.5A3.449,3.449,0,0,0,73,8.6a4.127,4.127,0,0,0-.468,1.97A4.086,4.086,0,0,0,73,12.534a3.511,3.511,0,0,0,1.3,1.375A3.585,3.585,0,0,0,76.186,14.412Zm6.506,0a2.706,2.706,0,0,0,1.4-.369,2.585,2.585,0,0,0,.936-.893h.057v1.035h1.148V9.607a2.713,2.713,0,0,0-.843-2.1,3.3,3.3,0,0,0-2.318-.773,3.67,3.67,0,0,0-1.651.369,2.9,2.9,0,0,0-1.169,1.021h0l.907.68a2.046,2.046,0,0,1,.808-.73,2.414,2.414,0,0,1,1.12-.262A2.114,2.114,0,0,1,84.52,8.3a1.628,1.628,0,0,1,.567,1.3h0v.439a3.133,3.133,0,0,0-.858-.326,4.929,4.929,0,0,0-1.212-.142,3.551,3.551,0,0,0-2.183.645A2.111,2.111,0,0,0,79.97,12a2.3,2.3,0,0,0,.34,1.24,2.336,2.336,0,0,0,.964.858A3.127,3.127,0,0,0,82.692,14.412Zm.113-1.063a1.762,1.762,0,0,1-1.148-.369,1.182,1.182,0,0,1-.454-.964,1.31,1.31,0,0,1,.5-1.063,2.323,2.323,0,0,1,1.5-.411,3.8,3.8,0,0,1,1.049.142,2.975,2.975,0,0,1,.836.369,2.206,2.206,0,0,1-.312,1.148,2.364,2.364,0,0,1-.836.836A2.18,2.18,0,0,1,82.805,13.349Zm7.357,1.063a3.753,3.753,0,0,0,1.446-.269,2.434,2.434,0,0,0,1.035-.773,1.878,1.878,0,0,0,.383-1.169,1.753,1.753,0,0,0-.539-1.3,3.445,3.445,0,0,0-1.6-.8h0l-1.049-.269a2.483,2.483,0,0,1-.936-.4.786.786,0,0,1-.312-.645.811.811,0,0,1,.447-.7,1.939,1.939,0,0,1,1.042-.276,1.75,1.75,0,0,1,1.715.964h0l1.049-.482A2.324,2.324,0,0,0,91.785,7.14a3.445,3.445,0,0,0-1.694-.411,3.522,3.522,0,0,0-1.347.255,2.4,2.4,0,0,0-1,.73,1.824,1.824,0,0,0,.177,2.417,3.156,3.156,0,0,0,1.418.723h0l.879.227a3.543,3.543,0,0,1,1.2.475.885.885,0,0,1-.1,1.517,2.3,2.3,0,0,1-1.162.276,2.064,2.064,0,0,1-1.169-.354,2.165,2.165,0,0,1-.8-1.006h0l-1.077.482a2.979,2.979,0,0,0,1.106,1.4A3.3,3.3,0,0,0,90.162,14.412Zm6.691-.113a3.033,3.033,0,0,0,.56-.043,1.853,1.853,0,0,0,.432-.142h0V12.938a1.469,1.469,0,0,1-.794.241.974.974,0,0,1-.78-.312,1.4,1.4,0,0,1-.227-.879h0V8.048H97.8V6.956H96.045V4.915h-1.2V6.956H93.578V8.048H94.84v4.238a2.333,2.333,0,0,0,.142.865,1.746,1.746,0,0,0,.425.624,1.863,1.863,0,0,0,.631.383A2.291,2.291,0,0,0,96.853,14.3Zm4.876.113a3.751,3.751,0,0,0,1.446-.269,2.436,2.436,0,0,0,1.035-.773,1.878,1.878,0,0,0,.383-1.169,1.752,1.752,0,0,0-.539-1.3,3.446,3.446,0,0,0-1.6-.8h0L101.4,9.834a2.478,2.478,0,0,1-.936-.4.786.786,0,0,1-.312-.645.811.811,0,0,1,.447-.7,1.939,1.939,0,0,1,1.042-.276,1.75,1.75,0,0,1,1.715.964h0l1.049-.482a2.323,2.323,0,0,0-1.056-1.148,3.445,3.445,0,0,0-1.694-.411,3.523,3.523,0,0,0-1.347.255,2.4,2.4,0,0,0-1,.73,1.824,1.824,0,0,0,.177,2.417,3.157,3.157,0,0,0,1.418.723h0l.879.227a3.546,3.546,0,0,1,1.2.475.885.885,0,0,1-.1,1.517,2.3,2.3,0,0,1-1.162.276,2.064,2.064,0,0,1-1.169-.354,2.165,2.165,0,0,1-.8-1.006h0l-1.077.482a2.979,2.979,0,0,0,1.106,1.4A3.305,3.305,0,0,0,101.729,14.412Z" transform="translate(0.615 -2.769)" fill="#797979"/>
        <path id="Combined-Shape" d="M32.012,6.864a2.562,2.562,0,0,1,1.963.838h.055V7.1H35.6v6.692c0,2.756-1.621,3.881-3.539,3.881a3.551,3.551,0,0,1-3.308-2.2l1.422-.6a2.053,2.053,0,0,0,1.874,1.323c1.224,0,1.985-.761,1.985-2.183v-.54h-.055a2.531,2.531,0,0,1-1.963.849,3.73,3.73,0,0,1,0-7.453Zm-16.152.11A3.669,3.669,0,0,1,19.6,10.7a3.737,3.737,0,0,1-7.475,0A3.669,3.669,0,0,1,15.861,6.974Zm8.159,0A3.669,3.669,0,0,1,27.757,10.7a3.737,3.737,0,0,1-7.475,0A3.669,3.669,0,0,1,24.019,6.974Zm18.632,0a3.453,3.453,0,0,1,3.186,2.37L46,9.763,41.02,11.825a1.907,1.907,0,0,0,1.808,1.125,2.144,2.144,0,0,0,1.841-1.025l1.268.849a3.73,3.73,0,0,1-3.109,1.654A3.646,3.646,0,0,1,39.135,10.7,3.544,3.544,0,0,1,42.652,6.974ZM6.2,2.784a5.525,5.525,0,0,1,3.969,1.6L9.047,5.5A3.99,3.99,0,0,0,6.2,4.361a4.146,4.146,0,0,0-4.145,4.2,4.146,4.146,0,0,0,4.145,4.2A3.871,3.871,0,0,0,9.125,11.6a3.285,3.285,0,0,0,.86-1.985H6.2V8.043h5.325a5.269,5.269,0,0,1,.088.992,5.177,5.177,0,0,1-1.367,3.693A5.328,5.328,0,0,1,6.2,14.35,5.861,5.861,0,0,1,.327,8.573,5.863,5.863,0,0,1,6.2,2.784Zm32.138.441V14.173H36.709V3.225Zm-22.48,5.2a2.144,2.144,0,0,0-2.106,2.26,2.111,2.111,0,1,0,4.212,0A2.151,2.151,0,0,0,15.861,8.429Zm8.159,0a2.144,2.144,0,0,0-2.106,2.26,2.111,2.111,0,1,0,4.212,0A2.144,2.144,0,0,0,24.019,8.429Zm8.136-.1A2.156,2.156,0,0,0,30.083,10.6a2.142,2.142,0,0,0,2.073,2.249A2.069,2.069,0,0,0,34.14,10.6,2.1,2.1,0,0,0,32.156,8.33Zm10.551.077a2.045,2.045,0,0,0-1.951,2.172L44.085,9.2A1.416,1.416,0,0,0,42.707,8.407Z" transform="translate(0.004 -2.784)" fill="#797979"/>
      </g>
      <path id="Listenon" d="M44.232,14.291v-.782H40.794V7.035h-.962v7.256Zm1.75-6.3a.5.5,0,0,0,.548-.523.545.545,0,0,0-.14-.379.523.523,0,0,0-.409-.154.515.515,0,0,0-.406.154.55.55,0,0,0-.137.379.532.532,0,0,0,.137.374A.524.524,0,0,0,45.982,7.992Zm.453,6.3V8.9h-.922v5.392Zm3.714.1a2.425,2.425,0,0,0,1.5-.436,1.38,1.38,0,0,0,.578-1.159,1.268,1.268,0,0,0-.207-.735,1.631,1.631,0,0,0-.635-.516,4.976,4.976,0,0,0-1.119-.369,3.248,3.248,0,0,1-.954-.324.559.559,0,0,1-.264-.5.69.69,0,0,1,.284-.573,1.26,1.26,0,0,1,.787-.219,1.2,1.2,0,0,1,.81.274.832.832,0,0,1,.321.653h.927a1.5,1.5,0,0,0-.571-1.211A2.253,2.253,0,0,0,50.12,8.8a2.189,2.189,0,0,0-1.433.458,1.4,1.4,0,0,0-.561,1.121,1.192,1.192,0,0,0,.2.688,1.58,1.58,0,0,0,.608.5,4.642,4.642,0,0,0,1.111.359,2.711,2.711,0,0,1,.982.356.679.679,0,0,1,.282.581.651.651,0,0,1-.316.566,1.487,1.487,0,0,1-.84.212,1.44,1.44,0,0,1-.914-.272.954.954,0,0,1-.371-.735h-.922a1.544,1.544,0,0,0,.281.89,1.864,1.864,0,0,0,.78.64A2.714,2.714,0,0,0,50.149,14.39Zm5.109,0a2.674,2.674,0,0,0,.708-.1h0v-.748a2.232,2.232,0,0,1-.439.06.567.567,0,0,1-.458-.162.747.747,0,0,1-.135-.486h0V9.611h1.007V8.9H54.934V7.593h-.922V8.9h-.982v.713h.982v3.344a1.605,1.605,0,0,0,.314,1.062A1.148,1.148,0,0,0,55.258,14.39Zm4.252,0a2.264,2.264,0,0,0,2.033-1.041h0l-.563-.439a2.077,2.077,0,0,1-.593.528,1.606,1.606,0,0,1-.827.2,1.465,1.465,0,0,1-1.134-.491,1.916,1.916,0,0,1-.466-1.288h3.653v-.384a3,3,0,0,0-.583-1.983A2.02,2.02,0,0,0,59.4,8.8a2.155,2.155,0,0,0-1.194.356,2.391,2.391,0,0,0-.857.987,3.236,3.236,0,0,0-.306,1.433h0v.169a2.673,2.673,0,0,0,.688,1.926A2.356,2.356,0,0,0,59.51,14.39ZM60.691,11.1h-2.7a1.974,1.974,0,0,1,.468-1.139,1.23,1.23,0,0,1,.937-.406,1.158,1.158,0,0,1,.917.386,1.756,1.756,0,0,1,.379,1.089h0Zm3.165,3.189V10.449a1.623,1.623,0,0,1,.528-.628,1.33,1.33,0,0,1,.787-.239,1.069,1.069,0,0,1,.815.279,1.242,1.242,0,0,1,.267.862h0v3.568h.922V10.728Q67.161,8.8,65.451,8.8a1.965,1.965,0,0,0-1.615.777h0l-.03-.678h-.872v5.392Zm9.959.1a2.387,2.387,0,0,0,1.288-.349,2.289,2.289,0,0,0,.862-.974,3.213,3.213,0,0,0,.3-1.413h0V11.59a2.933,2.933,0,0,0-.68-2.028A2.274,2.274,0,0,0,73.806,8.8a2.36,2.36,0,0,0-1.268.344,2.323,2.323,0,0,0-.867.977,3.184,3.184,0,0,0-.312,1.425h0v.065a2.919,2.919,0,0,0,.68,2.018A2.268,2.268,0,0,0,73.816,14.39Zm0-.752a1.332,1.332,0,0,1-1.114-.543,2.307,2.307,0,0,1-.416-1.44A2.5,2.5,0,0,1,72.7,10.1a1.324,1.324,0,0,1,1.1-.543,1.338,1.338,0,0,1,1.119.551,2.3,2.3,0,0,1,.421,1.438,2.522,2.522,0,0,1-.414,1.542A1.324,1.324,0,0,1,73.816,13.638Zm4.785.653V10.449a1.625,1.625,0,0,1,.528-.628,1.331,1.331,0,0,1,.787-.239,1.068,1.068,0,0,1,.815.279,1.241,1.241,0,0,1,.267.862h0v3.568h.922V10.728Q81.9,8.8,80.2,8.8a1.965,1.965,0,0,0-1.615.777h0l-.03-.678h-.872v5.392Z" transform="translate(1257.329 38.328)" fill="#797979"/>
    </g>
  </g>
</svg>
