<svg xmlns="http://www.w3.org/2000/svg" width="26.334" height="26.328" viewBox="0 0 26.334 26.328">
  <path id="Path_31" data-name="Path 31" d="M13.167-8.217a6.739,6.739,0,0,0-6.75,6.75,6.739,6.739,0,0,0,6.75,6.75,6.739,6.739,0,0,0,6.75-6.75A6.739,6.739,0,0,0,13.167-8.217Zm0,11.139A4.4,4.4,0,0,1,8.779-1.467a4.393,4.393,0,0,1,4.388-4.388,4.393,4.393,0,0,1,4.388,4.388A4.4,4.4,0,0,1,13.167,2.921Zm8.6-11.415a1.575,1.575,0,0,0-1.574-1.574,1.575,1.575,0,0,0-1.574,1.574,1.571,1.571,0,0,0,1.574,1.574A1.571,1.571,0,0,0,21.768-8.493Zm4.471,1.6a7.791,7.791,0,0,0-2.127-5.516A7.843,7.843,0,0,0,18.6-14.539c-2.174-.123-8.689-.123-10.863,0a7.831,7.831,0,0,0-5.516,2.121A7.817,7.817,0,0,0,.09-6.9C-.033-4.728-.033,1.787.09,3.961A7.792,7.792,0,0,0,2.217,9.478,7.853,7.853,0,0,0,7.733,11.6c2.174.123,8.689.123,10.863,0a7.792,7.792,0,0,0,5.516-2.127,7.843,7.843,0,0,0,2.127-5.516C26.362,1.787,26.362-4.722,26.239-6.9ZM23.43,6.293a4.443,4.443,0,0,1-2.5,2.5c-1.733.687-5.845.529-7.761.529S7.134,9.478,5.407,8.8a4.443,4.443,0,0,1-2.5-2.5C2.217,4.56,2.375.448,2.375-1.467S2.222-7.5,2.9-9.228a4.443,4.443,0,0,1,2.5-2.5c1.733-.687,5.845-.529,7.761-.529s6.033-.153,7.761.529a4.443,4.443,0,0,1,2.5,2.5c.687,1.733.529,5.845.529,7.761S24.118,4.566,23.43,6.293Z" transform="translate(0.003 14.631)" fill="#bcbbb4"/>
</svg>
