<svg xmlns="http://www.w3.org/2000/svg" xmlns:xlink="http://www.w3.org/1999/xlink" width="690.693" height="561.375" viewBox="0 0 690.693 561.375">
  <defs>
    <filter id="Ellipse_8" x="100.5" y="128.5" width="44" height="44" filterUnits="userSpaceOnUse">
      <feOffset dy="3" input="SourceAlpha"/>
      <feGaussianBlur stdDeviation="3" result="blur"/>
      <feFlood flood-color="#ef001b" flood-opacity="0.361"/>
      <feComposite operator="in" in2="blur"/>
      <feComposite in="SourceGraphic"/>
    </filter>
    <filter id="Ellipse_17" x="42.5" y="134.5" width="44" height="44" filterUnits="userSpaceOnUse">
      <feOffset dy="3" input="SourceAlpha"/>
      <feGaussianBlur stdDeviation="3" result="blur-2"/>
      <feFlood flood-color="#ef001b" flood-opacity="0.361"/>
      <feComposite operator="in" in2="blur-2"/>
      <feComposite in="SourceGraphic"/>
    </filter>
  </defs>
  <g id="Group_96" data-name="Group 96" transform="translate(-1023.5 -409.5)">
    <g id="map" transform="translate(884)">
      <g id="belgium" data-name="belgium — копия" transform="translate(140 410)">
        <g id="antwerp" transform="translate(291.138 0)">
          <path id="BE-VAN" d="M456.031,14.309l-2.753,1.312.128,4.854L449.351,18.7l.661-3.056,1.716,1.826,1.514-2.23-1.45-.973,4.239.037ZM426.273.252l10.158,5.487.807,6.432L433.421,15.6l1.3,6.965,2.909-.229-2,1.624-10.91-4.285-.284,4.827,16.618,1.542,3.817-2.34,5.726,6.763,14.9-14.535.587-6.689,3.927-4.918L473,8.217l5.891.367,4.68,11.195-5.818,10.993,10.745,13,.486,9.35L494,54.638l6.662-3.1,7.194,4.753L505.233,66.8l2.055,1.854h0l-3.744,4.184-.376,7.423,8.286,10.4.248,9.369-4.964,4.964-5.047-1.9L499.5,107.97l-4.744.6h0l-1.45.257h0l-5.065.312-6.231,9.011-14.847,3.12-.431,4.983-5.157,6.46h0l-2.771-3.083-5.552,2.459h-.835l-5.8,4.276-14.333,3-4.643-7.864-5.5,4.047-4.946-.45-6.423,7.726,1.771-4.469-4.12-2.918L394.4,139.48l-1.074,4.955-2.89.6-5.836-3.817-3.606,3.34-7.121-4.469L372,144.922l-4.781-3.992-10.3,2.854-1.019-4.276-2.927-.963,1.3-4.643-6.533,3.992.587-2.973-11.819-4.588-7.3,1.615h0l-1.34-1.78-3.57,2.946-3.927-2.092,1.376-4.983-2.092-.936-2.092-11.3,6.552-5.873,6.515,2.046,11.745-3.23,3.074-8.314-.128-8.038-2.248-1.11,1.3-4.148-3.891-1.193L337.935,70.4l5.726-8.506-7.442-5.12-1.835-11.222-5.763-3.3h0l-3.744-6.02,21.188-.908,1.376,5.359,7.267.936,8.607-2.542-8.46-16.067,2.248-5.827-3.3-1.6,16.921-8.947,11.617-1.175L384,8.061l-3.074,6.717.963,7.423,7.121-2.652L400.47,22.32l5.194-1.055-.321-5.166,4.625-2.11L420.584.408l5.689-.156Z" transform="translate(-317.564 -0.252)" fill="#fad443" stroke="#000" stroke-linecap="round" stroke-linejoin="round" stroke-width="1"/>
        </g>
        <g id="walloon_brabant" data-name="walloon brabant" transform="translate(276.136 196.754)">
          <path id="BE-WBR" d="M302.8,242.98l9.8-6.7,4.368,6.671,5.056-.569,7.084,5.515,2.661-2.955h7.91l1.422-5.79,3.735.982-1.872-3.285,1.854-1.743L347.8,240l3.836.083h0v-3.514h0l21.527-7.506-.156,3.68,5.836,4.138.119-3.184,8.745-2.248,3.716-4.753,1.532,6.414,5.414-.422,3.781-3.661-3.212-4.7.927-7.543,8.965,2.762,3.331-1.808.716,1.918,1.7-3.689,6.3-1.294L426.486,217l3.817,6.084,4.047.257.037,3.6,11.268-1.6h1.358l-.018,5.34,3.331,1.863,10.14-7.57,6.7,5.57h0l-.624,4.928-4.193,2.386,4.258,5.928-2.8,2.34.184,8.451-3.358,6.432h0l-5.753-1.349-4.258,5.616-5.129-.45.266,1.936-20.233,5.864.688,3.138-3.8-3.166-4.744,3.56-1.716-6.084-3.68.67-1.551,3.927-7.176-3.45-1.569,3.9,2.459,7.368-4.368,1.743-7.8-2.551-4.588,2.156.514,5.579h0l-11.709,4.34-1.964-3.982-4.57.762-1.606,2.569.551-8.543-3.533,1.156-6.781-2.973-9.644.752-4.616,5.184.551-6.754-5.763.055-5.267-7.506-4.68-.064,1.092-6.029-9.461-2.156.78-6.4-4.193-4.294-6.891,8.369-6.579-.11-2.7-5.753.5-13.856,3.377-.9Z" transform="translate(-301.214 -214.672)" fill="#fad443" stroke="#000" stroke-linecap="round" stroke-linejoin="round" stroke-width="1"/>
        </g>
        <g id="BE-BRU" transform="translate(303.691 166.739)">
          <g id="BE-BRU-2" data-name="BE-BRU">
            <path id="BE-BRU-3" data-name="BE-BRU" d="M363.59,186.174l.716.532h0l1.266,4.772-2.624,3.157,6.662,4.432,2.689,8.258-4.349,2.79.7,2h0l2.835.312h0l3.386,3.661-2.533.22h0l-2.322.991h0l-13.957,6.5-9.066-3.037-4.983-10.415-4.157,1.239-6.047-3.046h0l-.45.45h0l-.11-.34h0l1.808-2.34h0l.514-2.533,4.588-.229-.459-8.653,2.991-4.432h0l3.074-2.845h0l.982-.569h0l2.551-1.808h0l1.147-.248h0l6.634,1.211h0l3.808-4.239h0l2.312,1.7h0l1.826,1.239h0Z" transform="translate(-331.244 -181.962)" fill="#fad443" stroke="#000" stroke-linecap="round" stroke-linejoin="round" stroke-width="1"/>
          </g>
        </g>
        <g id="hainaut" transform="translate(52.909 195.662)">
          <path id="BE-WHT" d="M168.433,225.7l6.1,2.845,7.946-1.89.587,8.69,12.213.422,2.624,2.78h0l.982.312h0l8.46-14.462,5.873-2.734.734,4.083,7.946-3.826-.872,2.817,3.817,6.616,6.387-.652,5.038,2.422,7.3-2.7,2.89,5.258h0l-1.055,6.359,3.909,5.34,7.589.587H258.1l15.939-3.542,1.569,2.028,4.625-5.79h0v.652h0l2.533,1.578h0l2.285.312-3.377.9-.5,13.847,2.7,5.753,6.588.11,6.891-8.369,4.193,4.294-.789,6.4,9.461,2.156-1.092,6.029,4.68.055,5.267,7.515,5.763-.055-.551,6.754,4.625-5.184,9.635-.752,6.781,2.973,3.533-1.147-.551,8.543,1.606-2.578,4.57-.752,1.964,3.973,11.709-4.34h0L364.7,300.077h0V301h0l.7,2.936,5.533-2.854-1.431,1.707,2.413,5.6-5,9,8.176,4.7-2.45,6.065-3.34,1.12,3.643,3.634-2.909,1.367-1.569,6.276,2.45,8.589-13.37,2.982-2.661-3.569-3.762.055-4.193,6.5-9.974-1.67-.872,4.212-5.019,1.257-1.945,4.57-5.359-.5-7.405,6.01,10.268,7.992,3.872-4.368,1.734,1h1.753l2.533,1.835h0l-.147.945h0l-.358,4.561h-.624l.413,7.9-6.047,4.34,6.873,12.635-2.643,4.028.853,16.031,3.358,1.165.853,13.214,5.368,11.213-2.12,4.45h0l-14.617-3.157-7.46-4.45-20.371,3.625-.514-3.9-8.873-2.377,3.588-5.983-4.643-5.12,4.285-7.956,5.909-.33,6.607-5.515-5.891-10.02.5-7.662-8.332-.138.211,1.945-4.7-2,4.744-8.222-.771-13.847,3.946-.918,8.626-10.185-2.267-5.377-5.46-.918-2.78-3.845-2.23,3.955,3.1,4.652-5.285.083-3.7-12.672-3.716-2.9-3.533.835-9.249-13.415-6.708,4.551-2.395-1.5-.927,1.9-.147-2.01-11.709,5.992-9.268-7-4.285-.138-2.111,2.487-1.193-2.955-10.745.863-2.459,2.2-.752,8.369-3.7-2.037,1.569,3.872-1.734.45L206.7,346.9l-2.734-9.736,2.964-9.3-2.679-14.92-9.3-11.021-4.515,1.542-2.606-2.771-12.158,3.7-.817-3.193,4.074-6.974-7.873-2.689-4.891,7.479-1.835-1.092-10.892,5.377-2.606-3.579-12.479-5.708-2.248-4,.018-15.838-7.084-17.591,4.643-5.166-2.211-3.6,1.395-3.487-12.085-6.267,1.11-3.037-3.854-6.047h0l7.57-2.872,7.57,4.028,7.8-.982,3.34,9.506,6.3,3.377,8.286-10.351,4.964-.734h0v-1.1h0l4.561-4.166ZM61.853,242.708l1.248-1.633-5.157-6.331,1.872-1.551-1.7-2.725,4.762-2.762,1.569,1.551.055-2.028,3.092,2.45,4.726-1.156-.11-2.138,7.157-2.56-4.23-5.579,11.369-4.762,2.569,2.138-1.11,5.662,3.735.789-1.872,1.973h0L82.3,230.293l-6.662,1.881,1.129,3.716L70.3,246.626l-8.451-3.918Z" transform="translate(-57.944 -213.482)" fill="#fad443" stroke="#000" stroke-linecap="round" stroke-linejoin="round" stroke-width="1"/>
        </g>
        <path id="liege" d="M601.463,213.1l1.431,8.277-3.285,6.818h0l5.662,3.01h0l.872.11h0l2.45-2.276,2.266,1.688h0l.248.789h6.836l6.442,9.249,7.084-.872,3.872,2.028,5-7.148-3.267-5.882h0l4.432,1.266,7.937-3.313,3.45,2.615,7.084-.477,3.854,3.092-.358,7.2,1.092-2.679,12.691,1.688,11.855,19.976-2.523,2.331,2.661,3.01-1.211,1.652,3.68-1.854,12.672,1.826-4.533,10.488-3.248-.3-8.781,9.139.4,4.285,3.156,1.45-1.349,2.89,3.459,1.6,3.23,7.167,7.873-2.771,14.333,4.616-1.817,7.414,5.6,2.2.789,5.148-6.286,15.728L729,346.777l-.532,3.57-7.5,2.257-.22,2.872-5.157-5.212-4.478,1.055L706.263,365.7l-11.553,2.753-3.248,5.432-3.67.642-1.7,4,4.285,10.6-7.983,2.028-2.322,6.029,3.735,3.248-2.569,3.423-4.79-1.67,2.248-3.606-2.1-4.836-5.735-1.367-.266,4.175-3.368.826-5.322-2.973-1.175-5.414h0l1.688-6.286-3.744.083-.532-30.263-4.79-1.789-.716-2.643-20.83-4.772-2.028,5.607,3.212,3.652-4.285,9.249h.945l5.46.422-7.011,5.2-5.451-.973-.661,2.753-1.477-2.89-5.763-.863-7.7,1.78,4.45-11-4.166-.083-3.872-7.781,3.212-7.864-8.882.33.8-3.349-7.781-.752-7.121-7.7-10.066,1.835-4.4-9.075-7.836,4.918-8.479-6.2-2.514,4.753h2.817l1.376,3.184-6.478,6.221h0l-7.46-2.514-9.672,6.478-2.891-3.6,1.028-4.414-9.3-2.734-2.4-3.661,2.487-6.065L513.162,306.7l-6.249,2.909-2.248-4,1.826-1.459-4.872-.835-.863-3.441L503,297.29l-4.441,2.349-3.909-2.909-.376-4.45-10.176-.725,3.111-2.184-1-5.579L482.551,276l-8.616-8.359.927-6.763h0l3.358-6.432L478.036,246l2.8-2.34-4.258-5.928,4.193-2.386.624-4.928h0l4.726,2.9-.44,4.441,4.551,4.808,5.552-.56h0l11.58,3.735,2.734-2.468-2.285-2.9,1.193-2.643,9.929,1.826,1.5-2.643L524,240.178l3.175-3.689,5.019,3.4,7.947-8.3,6.781-.532,5.5,8.148,5.23-.275,2.5-5.2,2.771,4.129,8.387-5.111.45-4.735h0l1.009.514h0l13.8-5.157,7.763-8.561,5.735.395.4-2.138h0Z" transform="translate(-39.309 -17.786)" fill="#fad443" stroke="#000" stroke-linecap="round" stroke-linejoin="round" stroke-width="1"/>
        <g id="limburg" transform="translate(435.121 57.048)">
          <path id="BE-VLI" d="M617.722,212.827l4.46,3.459,6.5-2.395.89,2.845,6.322-4.166,1.23,3.909h0l3.267,5.882-5,7.139-3.872-2.028-7.084.872-6.442-9.249h-6.836l-.248-.789h0l-2.266-1.688-2.45,2.276h0l-.872-.11h0l-5.662-3.01h0l10.158-.679,5.12-6.194,2.789,3.927ZM573.31,68.818l3.964,3.725.716,12.067,16.15,6.845,1.156,3.606,19.068.395,2.092,9.084,8.35-4.57,5.4,6.754-8.084,7.515,3.982,5.671-6.442,1.844.771,8.525-4.661-.34-2.8,8.075,3.23,3.028-1.771,7.185-8.084,10.039,1.376,2.092L611.767,159l1.129,2.744-6.157,11.525-4.138-.312-3.781,8.268-6,2.679.789,12.434,6.928,4.313h0l-.413,2.138-5.726-.395-7.763,8.561-13.8,5.148h0l-1.018-.5h0l-.45,4.726-8.387,5.12-2.771-4.138-2.5,5.2-5.23.284-5.5-8.158-6.781.532-7.946,8.3-5.019-3.4-3.175,3.68-3.57-3.258-1.5,2.643-9.947-1.808-1.193,2.643,2.285,2.9-2.734,2.478L495.818,229.6h0l3.441-7.451-3.23-1.661,1.11-4.414h0l1.487-1.918h0l-1.193-6.3,7.607-6.368h0l-1.266-.055h0l-2.734-1.5,1.092-9.47,3.267-8.607,3.964.532,1.661-7.506-3.377-2.8-5.607.138-.551-2.34h0l-3.643,1.386h0l-3.7,2.092-2.432-3.505-2.3,1.331-3.927-7.286,6.038-4.918.587-7.267,8.139-3.221-1.606-6.653,1.964-.991.376,2.432,5.047-2.459-7.194-7.249-6.781.853.587,6.543-4.5,2.551-2.514-2.8-3.661,1.3-2.377-5.487-5.12,1.3h0l5.157-6.46.431-4.983,14.847-3.12,6.231-9.011,5.065-.312h0l1.45-.257h0l4.744-.6,2.193-4.882,5.047,1.9,4.964-4.964-.248-9.369-8.286-10.4.376-7.423,3.744-4.184h0l17.526-.459,1.771-3.469,12.764,3.414,12.241-10.846,5.441,1.422,3.377,4.973Z" transform="translate(-474.474 -62.422)" fill="#fad443" stroke="#000" stroke-linecap="round" stroke-linejoin="round" stroke-width="1"/>
        </g>
        <g id="luxemburg" transform="translate(432.725 302.747)">
          <path id="BE-WLX" d="M547.943,344.341l6.478-6.221-1.376-3.184h-2.817l2.514-4.753,8.479,6.2,7.836-4.918,4.4,9.075,10.066-1.835,7.121,7.7,7.781.752-.8,3.349,8.882-.33-3.212,7.864,3.872,7.781,4.166.083-4.45,11,7.7-1.78,5.763.863,1.477,2.89.661-2.753,5.451.973,7.011-5.2-5.46-.422h-.945l4.285-9.249-3.212-3.652,2.028-5.607,20.83,4.772.716,2.643,4.79,1.789.532,30.263,3.744-.083-1.688,6.286h0L650.2,401.5l-1.009,11.47-11.378,5.441-1.707,9.461-5.909,5.212L632.9,436.5l-1.743,4.964-7.267,4.515,3.111,8.8-5.4,4.872-5.515.7-2.322,12.305-4.891,4.753,8.7,5.634-1.7,3.2-3.469-1.4.945,4.276-2.422.973,2.019,1.707-3.166,3.065,2.468,12.47,6.047-1.184,7.442,13.25-.707,6.809,6.836-.881,3.67,4.6-3.67,8.938,8.1,3.5-.807,7.313-3.4.578-2.2,7.387-4.671,3.432.7,2.395,3.23-.165.018,3.753-5.249,5.708-4.377,2.12-10.176-4.56-2.386,6.258-17.178-3.432-6.084,6.258-.771,5.836-3.459-4.221-6.322-2-2.689,3.615-10.02,2.166-2.266,3.019-3.992-5.643,3.028-2.5-.229-3.322-4.212-3.542,2.322-4.138-3.019-.743-1.606-7.029-14.37-9.589-1.817,3.826-4.432,1.587-1.376-5.029,4.505-6.735-9.91-10.589-1.661-1.156-4.249,3.138-6.689-2.863-7,.661-.734-6.157-6.221.633-5.928-13.608-5.359.33L478.9,509.639l-2.266-4.909-4.772-.413h0l3.432-6.148.266-8.057,12.177-8.314-2.523-2.652,5.2-5.285,8.506-2.927-3.891-3.872.7-6.469-7.442-6.643-9.121,1.11.321-4.6-6.744-8.809,2.744.413,1.523-4.735,2.551,1.8,5.5-4.267.8-6.267,2.413-.138-1.395-3.083,2.45-9.736,1.835,8.268,22.261-.973,12.259-4.661h0v-1.11h0l-4.781-4.524,7.5-4.111-.606-3.028-6.533-7.809,1.193-1.587-3.1-.752,2.211-2.615-6.91-3,8.928-3-1.147-3.092,5.074-2.533,2.7,1.918,3.23-1.643L548,369.694l-.982-7.726-4.249-.523-2.909,3.423-1.055-2.533,9.231-5.937-2.377-4.267,3.533-4.5Z" transform="translate(-471.864 -330.182)" fill="#fad443" stroke="#000" stroke-linecap="round" stroke-linejoin="round" stroke-width="1"/>
        </g>
        <g id="namur" transform="translate(311.299 241.744)">
          <path id="BE-WNA" d="M391.351,293.46l-.514-5.579,4.588-2.156,7.8,2.551,4.368-1.743-2.459-7.368,1.569-3.9,7.176,3.45,1.551-3.927,3.68-.67,1.716,6.084,4.744-3.56,3.8,3.166-.688-3.138,20.233-5.864-.266-1.936,5.129.45,4.258-5.616,5.753,1.349h0l-.927,6.763,8.616,8.359,3.661,7.791,1,5.579-3.111,2.184,10.176.725.376,4.45,3.909,2.909,4.441-2.349-2.248,2.578.863,3.441,4.872.835-1.826,1.459,2.248,4,6.249-2.909,6.754,11.488-2.487,6.065,2.395,3.661,9.3,2.734-1.028,4.414,2.891,3.6,9.672-6.478,7.46,2.514h0l1.248,3.294-3.533,4.5,2.377,4.267-9.231,5.937,1.055,2.533,2.909-3.423,4.249.523.982,7.726-14.562,11.69-3.23,1.643-2.7-1.918-5.074,2.533,1.147,3.092-8.928,3,6.91,3-2.211,2.615,3.1.752-1.193,1.588,6.533,7.809.606,3.028-7.5,4.111,4.781,4.524h0v1.11h0l-12.259,4.661-22.261.973-1.835-8.268-2.45,9.736,1.395,3.083-2.413.138-.8,6.267-5.5,4.267-2.551-1.8-1.523,4.735-2.744-.413,6.744,8.809-.321,4.6,9.121-1.11,7.442,6.643-.7,6.469,3.891,3.872-8.506,2.927-5.2,5.285,2.523,2.652-12.177,8.313-.266,8.057-3.432,6.148h0l-7.1,3.973-13.847-1.652,4.157-7.313-4.946-13,2.432-.083,4.909-11.736-7.3-10.7-10.066-2.744-.248-2.936.587-3.79,4.515-3.267.266-8.7,3.836-3.432L434.387,426l3.212-.606,2.322-9.543,3.735,3.771-.771-8.8,5.1-4.716-3.478-4.505-7.359-.358L435.58,397.3l-11.388,8.837-2.248,6.91-10.121,7.387-2.422,5.129,3.478,4.267-2.762,7.011,1.551,8.314-16.884,2.432-10.121,4.845-2.964,5.148-16.232,2.459h0l2.129-4.45-5.377-11.213-.853-13.214-3.358-1.165-.853-16.031,2.643-4.019L352.922,397.3l6.047-4.331-.4-7.9h.624l.358-4.561h0l.138-.945h0l-2.533-1.844H355.4l-1.725-1-3.872,4.368L339.534,373.1l7.405-6.019,5.359.5,1.945-4.57,5.01-1.248.881-4.212,9.974,1.67,4.193-6.5,3.771-.055,2.661,3.569,13.37-2.982-2.45-8.589,1.569-6.276,2.909-1.376-3.634-3.625,3.331-1.12,2.45-6.065L390.1,321.52l5-9-2.413-5.6,1.431-1.707-5.533,2.854-.7-2.936h0v-.927h0Z" transform="translate(-339.534 -263.702)" fill="#fad443" stroke="#000" stroke-linecap="round" stroke-linejoin="round" stroke-width="1"/>
        </g>
        <path id="east_flanders" d="M315.066,45.992l5.763,3.3,1.844,11.222,7.442,5.129-5.735,8.506,2.56,13.535,3.891,1.193-1.3,4.148,2.248,1.11.119,8.029-3.065,8.314-11.745,3.239-6.515-2.046-6.552,5.873,2.092,11.3,2.083.936-1.376,4.983,3.927,2.092,3.569-2.936,1.34,1.78h0l-.661,5.267-2.588,1.1,1.945,3.707-6.176,5.148h0l-1.927.055h0l-4.8-1.753-2.808,5.964,2.377,8.084h0l.908,2.092h0l-4.249,4.037-7.864-4.157.872,6.643-4.249,2.624,2.5,2.936-1.019,3.716-7.671,10.663,4.946,1.074-1.2,12.709-8.314,5.625-3.037-2.3-2.23,3.487-6.588-2.9-3.065,4.9,3.569,7.451-5.175.872h0l-1.578-.083h0l-3.248-.789h0l-2.89-5.258-7.295,2.7-5.038-2.413-6.387.642-3.826-6.616.881-2.808-7.946,3.826-.734-4.083-5.873,2.734-8.46,14.462h0l-.982-.312h0l-2.624-2.79-12.2-.422-.587-8.69-7.946,1.89-6.1-2.845h0L187.372,201.1l-3.927-5.212,2.23-3.157-10.6-9.13,4.634-8.442-3.368-2.872-4.827,2.817-2.946-1.973,3.166-3.753-1.376-3.423,4.606-.028-2.248-3.046,3.817-.624-8.314-3.927,5.368-2.542-3.1-4.3,4.57-7.038L170.4,135.11h1.074L174,132.761l-1.927-1.872-18.582-12.746,7.653-5.1,6.5-12.351-4.5-7.323-4.551-1.56,4.3-3.157-3.138-6.992,5.524-2.7-2.89-10.672h0l8.4,8.506,17.618-.34-2.074-11.718,3.964.881,4.4-3.074,3.533,2.248,1.615-5.441,18.627,8.57,14.654,3.588,3.23,2.221-.8,11.571,11.993.936,5.175-3.386-.083,6.451,7.277-5.6,1.395,2.221,4.047-1.165,10.112-8.222,8.24.349L302.752,62.6Z" transform="translate(-12.907 -4.02)" fill="#fad443" stroke="#000" stroke-linecap="round" stroke-linejoin="round" stroke-width="1"/>
        <g id="Flemish_brabant" transform="translate(240.349 128.181)">
          <path id="BE-VBR" d="M456.986,144.209l5.12-1.3,2.377,5.487,3.661-1.3,2.514,2.8,4.5-2.551-.587-6.543,6.781-.853,7.194,7.249L483.5,149.65l-.376-2.432-1.964.991,1.606,6.653-8.139,3.221-.587,7.267L468,170.269l3.927,7.286,2.3-1.331,2.432,3.505,3.7-2.092h0L484,176.252h0l.551,2.34,5.607-.138,3.377,2.8-1.661,7.506-3.964-.532-3.267,8.607-1.092,9.47,2.734,1.5h0l1.266.055h0l-7.607,6.368,1.193,6.3h0l-1.487,1.918h0l-1.11,4.414,3.23,1.661-3.441,7.451h0l-5.552.56-4.551-4.808.45-4.441-4.735-2.9h0l-6.689-5.57-10.14,7.57-3.34-1.854.018-5.35h-1.358l-11.259,1.606-.037-3.606-4.056-.257-3.817-6.084-5.607-2.34-6.3,1.294-1.7,3.689-.716-1.918-3.34,1.8-8.956-2.762-.927,7.543,3.212,4.7-3.781,3.661-5.4.422-1.532-6.414-3.716,4.753-8.745,2.248-.128,3.175-5.836-4.138.165-3.689-21.527,7.515h0v3.514h0l-3.836-.083-2.982-4.891-1.854,1.743,1.872,3.294-3.735-.982-1.431,5.79h-7.91l-2.661,2.955-7.084-5.506-5.056.56-4.377-6.662-9.8,6.689h0l-2.533-1.578h0v-.652h0l-4.625,5.79-1.569-2.028L274.9,241.87h-1.193l-7.589-.587-3.909-5.34,1.055-6.359h0l3.248.789h0l1.569.083h0l5.175-.872-3.57-7.451,3.074-4.9,6.588,2.9,2.23-3.487,3.037,2.312,8.314-5.634,1.193-12.709-4.946-1.074,7.671-10.663,1.019-3.725-2.5-2.936,4.249-2.624-.872-6.634,7.873,4.148,4.249-4.037h0l-.908-2.092h0l-2.377-8.084,2.8-5.964,4.8,1.753h0l1.927-.055h0l6.176-5.148-1.945-3.707,2.588-1.1.661-5.267h0l7.3-1.615,11.819,4.588-.587,2.973,6.533-3.992-1.3,4.643,2.927.963,1.019,4.276,10.3-2.854,4.781,3.992,1.872-4.836,7.121,4.469,3.606-3.34,5.836,3.817,2.89-.6,1.074-4.955,14.03-4.047,4.12,2.918-1.771,4.469,6.423-7.726,4.946.45,5.5-4.047,4.643,7.864,14.333-3,5.8-4.276h.835l5.552-2.459,2.8,3.129ZM342.752,181.528h0l-1.147.257h0l-2.551,1.808h0l-.982.569h0L335,187.015h0l-3,4.432.468,8.653-4.588.229-.514,2.533h0l-1.8,2.34h0l.11.34h0l.45-.45h0l6.047,3.046,4.157-1.239,4.983,10.424,9.066,3.037,13.957-6.506h0l2.322-.982h0l2.533-.229-3.4-3.661h0l-2.835-.312h0l-.7-2,4.359-2.79-2.7-8.258-6.662-4.432,2.624-3.157-1.266-4.772h0l-1.285-1.808h0l-1.817-1.239h0l-2.322-1.7h0l-3.8,4.23-6.643-1.22Z" transform="translate(-262.214 -139.942)" fill="#fad443" stroke="#000" stroke-linecap="round" stroke-linejoin="round" stroke-width="1"/>
        </g>
        <g id="west_flanders" transform="translate(0 37.695)">
          <path id="BE-VWV" d="M147.468,41.332l2.845,9.717-4.5,5.441,3.046,3.707-1.587,1.11,2.5,6.6h0l2.89,10.672-5.524,2.7,3.138,6.992-4.3,3.157,4.551,1.56,4.5,7.323-6.5,12.351-7.653,5.1L159.452,130.5l1.927,1.872-2.533,2.349h-1.074l4.661,9.341-4.57,7.038,3.1,4.3-5.368,2.542,8.314,3.927-3.817.624,2.248,3.046-4.606.028L159.113,169l-3.166,3.753,2.946,1.973,4.827-2.817,3.368,2.872-4.634,8.442,10.6,9.13-2.23,3.157,3.927,5.212-11.066,10.791h0l-4.588,4.111h0v1.092h0l-4.964.734L145.844,227.8l-6.295-3.377-3.34-9.506-7.8.982-7.57-4.019-7.57,2.863h0l-4.854-9.534-4.386,1.009-2.487-2.111-5.065,6.111-4.175-2.23-4.661,3.1-2.551-1.211h0l1.872-1.973-3.725-.789,1.1-5.662-2.569-2.138L70.4,204.079l4.23,5.57-7.157,2.56.11,2.147L62.847,215.5l-3.083-2.45-.055,2.028-1.569-1.542-4.772,2.753,1.7,2.734-1.872,1.542L58.35,226.9,57.1,228.524h0l-2.808-4.359-5.175,1.973-5.028-3.065-1.643-6.891-9.984-11.736-.211-4.964-8.047-.927-1.643-2.367-5.946,2.707-3.459-10.066-2.918-.422,2.257-4.368-.6-9.314-.4-4.313-2.909-1.78,7.423-7.827L11.6,148.674,5.643,145.2.284,120.677,39.622,98.664,95.1,60.106l19.206-8.286-2.514-6.01,2.982-3.313-2.129,2.34,2.79,3.478,2.533-1.624-3.12,3.937,1.8-1.487.284,3.111,1.23-3.505,1.753,1.165-1.193-1.936,2.991.771-1.285-4.331-1.367.881,2.138-2-4.212-1.028,4.423,1.092.9,5.524Z" transform="translate(-0.284 -41.332)" fill="#fad443" stroke="#000" stroke-linecap="round" stroke-linejoin="round" stroke-width="1"/>
        </g>
        <g id="brussels" transform="translate(303.691 166.739)">
          <path id="BE-BRU-4" data-name="BE-BRU" d="M363.59,186.174l.716.532h0l1.266,4.772-2.624,3.157,6.662,4.432,2.689,8.258-4.349,2.79.7,2h0l2.835.312h0l3.386,3.661-2.533.22h0l-2.322.991h0l-13.957,6.5-9.066-3.037-4.983-10.415-4.157,1.239-6.047-3.046h0l-.45.45h0l-.11-.34h0l1.808-2.34h0l.514-2.533,4.588-.229-.459-8.653,2.991-4.432h0l3.074-2.845h0l.982-.569h0l2.551-1.808h0l1.147-.248h0l6.634,1.211h0l3.808-4.239h0l2.312,1.7h0l1.826,1.239h0Z" transform="translate(-331.244 -181.962)" fill="#fad443" stroke="#000" stroke-linecap="round" stroke-linejoin="round" stroke-width="1"/>
        </g>
      </g>
    </g>
    <g id="dots" transform="translate(917 -691)">
      <g id="Ellipse_2" data-name="Ellipse 2" transform="translate(613 1342)" fill="#fff" stroke="#ff001d" stroke-width="3">
        <circle cx="13" cy="13" r="13" stroke="none"/>
        <circle cx="13" cy="13" r="11.5" fill="none"/>
      </g>
      <g transform="matrix(1, 0, 0, 1, 106.5, 1100.5)" filter="url(#Ellipse_8)">
        <g id="Ellipse_8-2" data-name="Ellipse 8" transform="translate(109.5 134.5)" fill="#fff" stroke="#ff001d" stroke-width="3">
          <circle cx="13" cy="13" r="13" stroke="none"/>
          <circle cx="13" cy="13" r="11.5" fill="none"/>
        </g>
      </g>
      <g transform="matrix(1, 0, 0, 1, 106.5, 1100.5)" filter="url(#Ellipse_17)">
        <g id="Ellipse_17-2" data-name="Ellipse 17" transform="translate(51.5 140.5)" fill="#fff" stroke="#ff001d" stroke-width="3">
          <circle cx="13" cy="13" r="13" stroke="none"/>
          <circle cx="13" cy="13" r="11.5" fill="none"/>
        </g>
      </g>
      <g id="Ellipse_9" data-name="Ellipse 9" transform="translate(298 1355)" fill="#fff" stroke="#ff001d" stroke-width="3">
        <circle cx="13" cy="13" r="13" stroke="none"/>
        <circle cx="13" cy="13" r="11.5" fill="none"/>
      </g>
      <g id="Ellipse_10" data-name="Ellipse 10" transform="translate(429 1405)" fill="#fff" stroke="#ff001d" stroke-width="3">
        <circle cx="13" cy="13" r="13" stroke="none"/>
        <circle cx="13" cy="13" r="11.5" fill="none"/>
      </g>
      <g id="Ellipse_11" data-name="Ellipse 11" transform="translate(525 1437)" fill="#fff" stroke="#ff001d" stroke-width="3">
        <circle cx="13" cy="13" r="13" stroke="none"/>
        <circle cx="13" cy="13" r="11.5" fill="none"/>
      </g>
      <g id="Ellipse_18" data-name="Ellipse 18" transform="translate(630 1563)" fill="#fff" stroke="#ff001d" stroke-width="3">
        <circle cx="13" cy="13" r="13" stroke="none"/>
        <circle cx="13" cy="13" r="11.5" fill="none"/>
      </g>
      <g id="Ellipse_12" data-name="Ellipse 12" transform="translate(347 1338)" fill="#fff" stroke="#ff001d" stroke-width="3">
        <circle cx="13" cy="13" r="13" stroke="none"/>
        <circle cx="13" cy="13" r="11.5" fill="none"/>
      </g>
      <g id="Component_5_15" data-name="Component 5 – 15" transform="translate(512 1267)">
        <g id="Ellipse_3" data-name="Ellipse 3" fill="#fff" stroke="#ff001d" stroke-width="3">
          <circle cx="13" cy="13" r="13" stroke="none"/>
          <circle cx="13" cy="13" r="11.5" fill="none"/>
        </g>
      </g>
      <g id="Ellipse_5" data-name="Ellipse 5" transform="translate(486 1311)" fill="#fff" stroke="#ff001d" stroke-width="3">
        <circle cx="13" cy="13" r="13" stroke="none"/>
        <circle cx="13" cy="13" r="11.5" fill="none"/>
      </g>
      <g id="Ellipse_6" data-name="Ellipse 6" transform="translate(630 1228)" fill="#fff" stroke="#ff001d" stroke-width="3">
        <circle cx="13" cy="13" r="13" stroke="none"/>
        <circle cx="13" cy="13" r="11.5" fill="none"/>
      </g>
      <g id="Ellipse_7" data-name="Ellipse 7" transform="translate(643 1405)" fill="#fff" stroke="#ff001d" stroke-width="3">
        <circle cx="13" cy="13" r="13" stroke="none"/>
        <circle cx="13" cy="13" r="11.5" fill="none"/>
      </g>
      <g id="Ellipse_19" data-name="Ellipse 19" transform="translate(675 1463)" fill="#fff" stroke="#ff001d" stroke-width="3">
        <circle cx="13" cy="13" r="13" stroke="none"/>
        <circle cx="13" cy="13" r="11.5" fill="none"/>
      </g>
      <g id="Component_4_3" data-name="Component 4 – 3" transform="translate(515 1181)">
        <g id="Ellipse_4" data-name="Ellipse 4" fill="#fff" stroke="#ff001d" stroke-width="3">
          <circle cx="13" cy="13" r="13" stroke="none"/>
          <circle cx="13" cy="13" r="11.5" fill="none"/>
        </g>
      </g>
      <g id="Component_5_16" data-name="Component 5 – 16" transform="translate(486 1311)">
        <g id="Ellipse_3-2" data-name="Ellipse 3" fill="#fff" stroke="#ff001d" stroke-width="3">
          <circle cx="13" cy="13" r="13" stroke="none"/>
          <circle cx="13" cy="13" r="11.5" fill="none"/>
        </g>
      </g>
      <g id="Component_5_17" data-name="Component 5 – 17" transform="translate(347 1338)">
        <g id="Ellipse_3-3" data-name="Ellipse 3" fill="#fff" stroke="#ff001d" stroke-width="3">
          <circle cx="13" cy="13" r="13" stroke="none"/>
          <circle cx="13" cy="13" r="11.5" fill="none"/>
        </g>
      </g>
      <g id="Component_5_29" data-name="Component 5 – 29" transform="translate(311 1235)">
        <g id="Ellipse_3-4" data-name="Ellipse 3" fill="#fff" stroke="#ff001d" stroke-width="3">
          <circle cx="13" cy="13" r="13" stroke="none"/>
          <circle cx="13" cy="13" r="11.5" fill="none"/>
        </g>
      </g>
      <g id="Component_5_18" data-name="Component 5 – 18" transform="translate(298 1355)">
        <g id="Ellipse_3-5" data-name="Ellipse 3" fill="#fff" stroke="#ff001d" stroke-width="3">
          <circle cx="13" cy="13" r="13" stroke="none"/>
          <circle cx="13" cy="13" r="11.5" fill="none"/>
        </g>
      </g>
      <g id="Component_5_19" data-name="Component 5 – 19" transform="translate(429 1405)">
        <g id="Ellipse_3-6" data-name="Ellipse 3" fill="#fff" stroke="#ff001d" stroke-width="3">
          <circle cx="13" cy="13" r="13" stroke="none"/>
          <circle cx="13" cy="13" r="11.5" fill="none"/>
        </g>
      </g>
      <g id="Component_5_20" data-name="Component 5 – 20" transform="translate(525 1437)">
        <g id="Ellipse_3-7" data-name="Ellipse 3" fill="#fff" stroke="#ff001d" stroke-width="3">
          <circle cx="13" cy="13" r="13" stroke="none"/>
          <circle cx="13" cy="13" r="11.5" fill="none"/>
        </g>
      </g>
      <g id="Component_5_21" data-name="Component 5 – 21" transform="translate(643 1405)">
        <g id="Ellipse_3-8" data-name="Ellipse 3" fill="#fff" stroke="#ff001d" stroke-width="3">
          <circle cx="13" cy="13" r="13" stroke="none"/>
          <circle cx="13" cy="13" r="11.5" fill="none"/>
        </g>
      </g>
      <g id="Component_5_22" data-name="Component 5 – 22" transform="translate(675 1463)">
        <g id="Ellipse_3-9" data-name="Ellipse 3" fill="#fff" stroke="#ff001d" stroke-width="3">
          <circle cx="13" cy="13" r="13" stroke="none"/>
          <circle cx="13" cy="13" r="11.5" fill="none"/>
        </g>
      </g>
      <g id="Component_5_23" data-name="Component 5 – 23" transform="translate(630 1563)">
        <g id="Ellipse_3-10" data-name="Ellipse 3" fill="#fff" stroke="#ff001d" stroke-width="3">
          <circle cx="13" cy="13" r="13" stroke="none"/>
          <circle cx="13" cy="13" r="11.5" fill="none"/>
        </g>
      </g>
      <g id="Component_5_24" data-name="Component 5 – 24" transform="translate(216 1235)">
        <g id="Ellipse_3-11" data-name="Ellipse 3" fill="#fff" stroke="#ff001d" stroke-width="3">
          <circle cx="13" cy="13" r="13" stroke="none"/>
          <circle cx="13" cy="13" r="11.5" fill="none"/>
        </g>
      </g>
      <g id="Component_5_25" data-name="Component 5 – 25" transform="translate(158 1241)">
        <g id="Ellipse_3-12" data-name="Ellipse 3" fill="#fff" stroke="#ff001d" stroke-width="3">
          <circle cx="13" cy="13" r="13" stroke="none"/>
          <circle cx="13" cy="13" r="11.5" fill="none"/>
        </g>
      </g>
      <g id="Component_5_26" data-name="Component 5 – 26" transform="translate(515 1181)">
        <g id="Ellipse_3-13" data-name="Ellipse 3" fill="#fff" stroke="#ff001d" stroke-width="3">
          <circle cx="13" cy="13" r="13" stroke="none"/>
          <circle cx="13" cy="13" r="11.5" fill="none"/>
        </g>
      </g>
      <g id="Component_5_27" data-name="Component 5 – 27" transform="translate(630 1228)">
        <g id="Ellipse_3-14" data-name="Ellipse 3" fill="#fff" stroke="#ff001d" stroke-width="3">
          <circle cx="13" cy="13" r="13" stroke="none"/>
          <circle cx="13" cy="13" r="11.5" fill="none"/>
        </g>
      </g>
      <g id="Component_5_28" data-name="Component 5 – 28" transform="translate(613 1342)">
        <g id="Ellipse_3-15" data-name="Ellipse 3" fill="#fff" stroke="#ff001d" stroke-width="3">
          <circle cx="13" cy="13" r="13" stroke="none"/>
          <circle cx="13" cy="13" r="11.5" fill="none"/>
        </g>
      </g>
    </g>
    <g id="labels">
      <path id="Path_51" data-name="Path 51" d="M8.654,13H7.67L5.941,7.264q-.123-.381-.275-.961a5.6,5.6,0,0,1-.158-.7A13.343,13.343,0,0,1,5.1,7.3L3.422,13H2.438L.158,4.434H1.213L2.566,9.725a19.678,19.678,0,0,1,.41,2.016,14.557,14.557,0,0,1,.469-2.1L4.98,4.434H6.035L7.646,9.689a15.978,15.978,0,0,1,.475,2.051,17.568,17.568,0,0,1,.422-2.027L9.891,4.434h1.055Zm8.408,0H12.287V4.434h4.775v.885H13.283v2.76h3.551v.879H13.283v3.152h3.779Zm6.732-2.279a2.1,2.1,0,0,1-.82,1.764,3.557,3.557,0,0,1-2.227.633,5.577,5.577,0,0,1-2.344-.393v-.961a6.171,6.171,0,0,0,1.148.352,6.042,6.042,0,0,0,1.23.129,2.483,2.483,0,0,0,1.5-.378,1.24,1.24,0,0,0,.5-1.052,1.35,1.35,0,0,0-.179-.729,1.66,1.66,0,0,0-.6-.524,8.361,8.361,0,0,0-1.274-.545A4.068,4.068,0,0,1,19.028,8a2.238,2.238,0,0,1-.513-1.529A1.9,1.9,0,0,1,19.26,4.9a3.092,3.092,0,0,1,1.969-.586,5.8,5.8,0,0,1,2.35.469l-.311.867A5.31,5.31,0,0,0,21.205,5.2a2,2,0,0,0-1.236.34,1.12,1.12,0,0,0-.445.943,1.446,1.446,0,0,0,.164.729,1.545,1.545,0,0,0,.554.521,6.88,6.88,0,0,0,1.192.524,4.721,4.721,0,0,1,1.854,1.031A2.028,2.028,0,0,1,23.795,10.721ZM28.184,13h-1V5.318H24.475V4.434H30.9v.885H28.184ZM36.3,13h-1V4.434h4.775v.885H36.3V8.453H39.85v.885H36.3Zm5.2,0V4.434h1V12.1h3.779V13Zm11.613,0-1.066-2.725H48.609L47.555,13H46.547l3.387-8.6h.838L54.141,13ZM51.732,9.379l-1-2.654q-.193-.5-.4-1.236a11.1,11.1,0,0,1-.369,1.236L48.961,9.379ZM62.01,13H60.873L56.191,5.811h-.047q.094,1.266.094,2.32V13h-.92V4.434h1.125l4.67,7.16h.047q-.012-.158-.053-1.017T61.078,9.35V4.434h.932ZM71.2,8.635a4.325,4.325,0,0,1-1.151,3.243A4.555,4.555,0,0,1,66.738,13H64.365V4.434H66.99A4.2,4.2,0,0,1,70.1,5.541,4.182,4.182,0,0,1,71.2,8.635Zm-1.055.035a3.449,3.449,0,0,0-.841-2.525,3.37,3.37,0,0,0-2.5-.85H65.361v6.844h1.213a3.688,3.688,0,0,0,2.678-.876A3.468,3.468,0,0,0,70.148,8.67ZM77.889,13H73.113V4.434h4.775v.885H74.109v2.76H77.66v.879H74.109v3.152h3.779Zm2.895-3.562V13h-1V4.434h2.35a3.7,3.7,0,0,1,2.329.6,2.188,2.188,0,0,1,.753,1.816A2.275,2.275,0,0,1,83.5,9.15L85.822,13H84.645L82.57,9.438Zm0-.855h1.365A2.358,2.358,0,0,0,83.7,8.163a1.559,1.559,0,0,0,.492-1.257,1.43,1.43,0,0,0-.5-1.225,2.714,2.714,0,0,0-1.608-.375H80.783Zm11.256,2.139a2.1,2.1,0,0,1-.82,1.764,3.557,3.557,0,0,1-2.227.633,5.577,5.577,0,0,1-2.344-.393v-.961a6.171,6.171,0,0,0,1.148.352,6.042,6.042,0,0,0,1.23.129,2.483,2.483,0,0,0,1.5-.378,1.24,1.24,0,0,0,.5-1.052,1.35,1.35,0,0,0-.179-.729,1.66,1.66,0,0,0-.6-.524,8.361,8.361,0,0,0-1.274-.545A4.068,4.068,0,0,1,87.272,8a2.238,2.238,0,0,1-.513-1.529A1.9,1.9,0,0,1,87.5,4.9a3.092,3.092,0,0,1,1.969-.586,5.8,5.8,0,0,1,2.35.469l-.311.867A5.31,5.31,0,0,0,89.449,5.2a2,2,0,0,0-1.236.34,1.12,1.12,0,0,0-.445.943,1.446,1.446,0,0,0,.164.729,1.545,1.545,0,0,0,.554.521,6.88,6.88,0,0,0,1.192.524,4.721,4.721,0,0,1,1.854,1.031A2.028,2.028,0,0,1,92.039,10.721Z" transform="translate(1059 520)" fill="#060501"/>
      <path id="Path_50" data-name="Path 50" d="M5.953,13H1.178V4.434H5.953v.885H2.174v2.76H5.725v.879H2.174v3.152H5.953Zm7.283,0L12.17,10.275H8.736L7.682,13H6.674l3.387-8.6H10.9L14.268,13ZM11.859,9.379l-1-2.654q-.193-.5-.4-1.236A11.1,11.1,0,0,1,10.1,6.725L9.088,9.379Zm8.42,1.342a2.1,2.1,0,0,1-.82,1.764,3.557,3.557,0,0,1-2.227.633,5.577,5.577,0,0,1-2.344-.393v-.961a6.171,6.171,0,0,0,1.148.352,6.042,6.042,0,0,0,1.23.129,2.483,2.483,0,0,0,1.5-.378,1.24,1.24,0,0,0,.5-1.052,1.35,1.35,0,0,0-.179-.729,1.66,1.66,0,0,0-.6-.524,8.361,8.361,0,0,0-1.274-.545A4.068,4.068,0,0,1,15.513,8,2.238,2.238,0,0,1,15,6.473,1.9,1.9,0,0,1,15.744,4.9a3.092,3.092,0,0,1,1.969-.586,5.8,5.8,0,0,1,2.35.469l-.311.867A5.31,5.31,0,0,0,17.689,5.2a2,2,0,0,0-1.236.34,1.12,1.12,0,0,0-.445.943,1.446,1.446,0,0,0,.164.729,1.545,1.545,0,0,0,.554.521,6.88,6.88,0,0,0,1.192.524,4.721,4.721,0,0,1,1.854,1.031A2.028,2.028,0,0,1,20.279,10.721ZM24.668,13h-1V5.318H20.959V4.434h6.422v.885H24.668Zm8.115,0h-1V4.434h4.775v.885H32.783V8.453h3.551v.885H32.783Zm5.2,0V4.434h1V12.1h3.779V13Zm11.613,0-1.066-2.725H45.094L44.039,13H43.031l3.387-8.6h.838L50.625,13ZM48.217,9.379l-1-2.654q-.193-.5-.4-1.236a11.1,11.1,0,0,1-.369,1.236L45.445,9.379ZM58.494,13H57.357L52.676,5.811h-.047q.094,1.266.094,2.32V13H51.8V4.434h1.125l4.67,7.16h.047q-.012-.158-.053-1.017T57.563,9.35V4.434h.932Zm9.193-4.365a4.325,4.325,0,0,1-1.151,3.243A4.555,4.555,0,0,1,63.223,13H60.85V4.434h2.625A4.2,4.2,0,0,1,66.58,5.541,4.182,4.182,0,0,1,67.688,8.635Zm-1.055.035a3.449,3.449,0,0,0-.841-2.525,3.37,3.37,0,0,0-2.5-.85H61.846v6.844h1.213a3.688,3.688,0,0,0,2.678-.876A3.468,3.468,0,0,0,66.633,8.67ZM74.373,13H69.6V4.434h4.775v.885H70.594v2.76h3.551v.879H70.594v3.152h3.779Zm2.895-3.562V13h-1V4.434h2.35a3.7,3.7,0,0,1,2.329.6A2.188,2.188,0,0,1,81.7,6.854a2.275,2.275,0,0,1-1.723,2.3L82.307,13H81.129L79.055,9.438Zm0-.855h1.365a2.358,2.358,0,0,0,1.547-.419,1.559,1.559,0,0,0,.492-1.257,1.43,1.43,0,0,0-.5-1.225,2.714,2.714,0,0,0-1.608-.375H77.268Zm11.256,2.139a2.1,2.1,0,0,1-.82,1.764,3.557,3.557,0,0,1-2.227.633,5.577,5.577,0,0,1-2.344-.393v-.961a6.171,6.171,0,0,0,1.148.352,6.042,6.042,0,0,0,1.23.129,2.483,2.483,0,0,0,1.5-.378,1.24,1.24,0,0,0,.5-1.052,1.35,1.35,0,0,0-.179-.729,1.66,1.66,0,0,0-.6-.524,8.361,8.361,0,0,0-1.274-.545A4.068,4.068,0,0,1,83.757,8a2.238,2.238,0,0,1-.513-1.529A1.9,1.9,0,0,1,83.988,4.9a3.092,3.092,0,0,1,1.969-.586,5.8,5.8,0,0,1,2.35.469L88,5.646A5.31,5.31,0,0,0,85.934,5.2a2,2,0,0,0-1.236.34,1.12,1.12,0,0,0-.445.943,1.446,1.446,0,0,0,.164.729,1.545,1.545,0,0,0,.554.521,6.88,6.88,0,0,0,1.192.524,4.721,4.721,0,0,1,1.854,1.031A2.028,2.028,0,0,1,88.523,10.721Z" transform="translate(1196 507)" fill="#060501"/>
      <path id="Path_49" data-name="Path 49" d="M7.682,13h-1V8.969H2.174V13h-1V4.434h1V8.078H6.686V4.434h1Zm7.734,0L14.35,10.275H10.916L9.861,13H8.854L12.24,4.4h.838L16.447,13ZM14.039,9.379l-1-2.654q-.193-.5-.4-1.236a11.1,11.1,0,0,1-.369,1.236L11.268,9.379ZM17.625,13V4.434h1V13Zm10.037,0H26.525L21.844,5.811H21.8q.094,1.266.094,2.32V13h-.92V4.434H22.1l4.67,7.16h.047q-.012-.158-.053-1.017T26.73,9.35V4.434h.932Zm7.74,0-1.066-2.725H30.9L29.848,13H28.84l3.387-8.6h.838L36.434,13ZM34.025,9.379l-1-2.654q-.193-.5-.4-1.236a11.1,11.1,0,0,1-.369,1.236L31.254,9.379ZM44.08,4.434V9.977a3.019,3.019,0,0,1-.885,2.3,3.393,3.393,0,0,1-2.432.838,3.244,3.244,0,0,1-2.394-.844,3.129,3.129,0,0,1-.847-2.32V4.434h1v5.59a2.2,2.2,0,0,0,.586,1.646,2.364,2.364,0,0,0,1.723.574,2.28,2.28,0,0,0,1.67-.577,2.22,2.22,0,0,0,.586-1.655V4.434ZM48.984,13h-1V5.318H45.275V4.434H51.7v.885H48.984Z" transform="translate(1168 643)" fill="#060501"/>
      <path id="Path_52" data-name="Path 52" d="M7.869,13H6.732L2.051,5.811H2Q2.1,7.076,2.1,8.131V13h-.92V4.434H2.3l4.67,7.16H7.02q-.012-.158-.053-1.017T6.938,9.35V4.434h.932Zm7.74,0-1.066-2.725H11.109L10.055,13H9.047l3.387-8.6h.838L16.641,13ZM14.232,9.379l-1-2.654q-.193-.5-.4-1.236a11.1,11.1,0,0,1-.369,1.236L11.461,9.379ZM21.609,13,18.7,5.406h-.047q.082.9.082,2.145V13h-.92V4.434h1.5L22.031,11.5h.047l2.736-7.066H26.3V13h-1V7.48q0-.949.082-2.062h-.047L22.412,13ZM35.121,4.434V9.977a3.019,3.019,0,0,1-.885,2.3,3.393,3.393,0,0,1-2.432.838,3.244,3.244,0,0,1-2.394-.844,3.129,3.129,0,0,1-.847-2.32V4.434h1v5.59a2.2,2.2,0,0,0,.586,1.646,2.364,2.364,0,0,0,1.723.574,2.28,2.28,0,0,0,1.67-.577,2.22,2.22,0,0,0,.586-1.655V4.434Zm3.264,5V13h-1V4.434h2.35a3.7,3.7,0,0,1,2.329.6,2.188,2.188,0,0,1,.753,1.816A2.275,2.275,0,0,1,41.1,9.15L43.424,13H42.246L40.172,9.438Zm0-.855H39.75A2.358,2.358,0,0,0,41.3,8.163a1.559,1.559,0,0,0,.492-1.257,1.43,1.43,0,0,0-.5-1.225,2.714,2.714,0,0,0-1.608-.375H38.385Z" transform="translate(1415 713)" fill="#060501"/>
      <path id="Path_53" data-name="Path 53" d="M1.178,13V4.434h1V12.1H5.953V13Zm12.7-8.566V9.977a3.019,3.019,0,0,1-.885,2.3,3.393,3.393,0,0,1-2.432.838,3.244,3.244,0,0,1-2.394-.844,3.129,3.129,0,0,1-.847-2.32V4.434h1v5.59A2.2,2.2,0,0,0,8.9,11.67a2.364,2.364,0,0,0,1.723.574,2.28,2.28,0,0,0,1.67-.577,2.22,2.22,0,0,0,.586-1.655V4.434ZM21.844,13H20.713l-2.3-3.768L16.066,13H15.012l2.848-4.477-2.654-4.09h1.1l2.127,3.393,2.145-3.393h1.061L18.984,8.488Zm6,0H23.068V4.434h4.775v.885H24.064v2.76h3.551v.879H24.064v3.152h3.779Zm5.689,0L30.627,5.406H30.58q.082.9.082,2.145V13h-.92V4.434h1.5L33.955,11.5H34l2.736-7.066h1.488V13h-1V7.48q0-.949.082-2.062h-.047L34.336,13Zm7.043-8.566H43a4.566,4.566,0,0,1,2.467.51,1.8,1.8,0,0,1,.762,1.611A1.862,1.862,0,0,1,45.8,7.812a2.045,2.045,0,0,1-1.239.642v.059q1.951.334,1.951,2.051a2.2,2.2,0,0,1-.776,1.793A3.3,3.3,0,0,1,43.564,13H40.576Zm1,3.668h1.641a2.671,2.671,0,0,0,1.518-.331,1.278,1.278,0,0,0,.463-1.116,1.13,1.13,0,0,0-.516-1.04,3.222,3.222,0,0,0-1.641-.319H41.572Zm0,.844V12.15h1.787a2.545,2.545,0,0,0,1.562-.4,1.482,1.482,0,0,0,.524-1.257,1.331,1.331,0,0,0-.536-1.172,2.866,2.866,0,0,0-1.632-.375Zm14.215-.24a4.716,4.716,0,0,1-1.04,3.234,3.656,3.656,0,0,1-2.892,1.178,3.7,3.7,0,0,1-2.921-1.157,4.754,4.754,0,0,1-1.028-3.267A4.7,4.7,0,0,1,48.938,5.45,3.729,3.729,0,0,1,51.867,4.3,3.649,3.649,0,0,1,54.75,5.471,4.711,4.711,0,0,1,55.787,8.705Zm-6.826,0a4.066,4.066,0,0,0,.741,2.64,3.027,3.027,0,0,0,4.3,0,4.122,4.122,0,0,0,.727-2.643,4.089,4.089,0,0,0-.724-2.622,2.593,2.593,0,0,0-2.142-.894,2.644,2.644,0,0,0-2.165.9A4.024,4.024,0,0,0,48.961,8.705ZM64.166,4.434V9.977a3.019,3.019,0,0,1-.885,2.3,3.393,3.393,0,0,1-2.432.838,3.244,3.244,0,0,1-2.394-.844,3.129,3.129,0,0,1-.847-2.32V4.434h1v5.59a2.2,2.2,0,0,0,.586,1.646,2.364,2.364,0,0,0,1.723.574,2.28,2.28,0,0,0,1.67-.577,2.22,2.22,0,0,0,.586-1.655V4.434Zm3.264,5V13h-1V4.434h2.35a3.7,3.7,0,0,1,2.329.6,2.188,2.188,0,0,1,.753,1.816,2.275,2.275,0,0,1-1.723,2.3L72.469,13H71.291L69.217,9.438Zm0-.855h1.365a2.358,2.358,0,0,0,1.547-.419,1.559,1.559,0,0,0,.492-1.257,1.43,1.43,0,0,0-.5-1.225,2.714,2.714,0,0,0-1.608-.375H67.43Zm10.189-.07h2.912v4.166a9.362,9.362,0,0,1-1.383.328,10.528,10.528,0,0,1-1.629.111A3.948,3.948,0,0,1,74.49,11.96a4.561,4.561,0,0,1-1.084-3.243,4.9,4.9,0,0,1,.536-2.341,3.626,3.626,0,0,1,1.544-1.535,5,5,0,0,1,2.361-.53,6.453,6.453,0,0,1,2.555.5l-.387.879A5.707,5.707,0,0,0,77.783,5.2a3.2,3.2,0,0,0-2.443.932,3.616,3.616,0,0,0-.879,2.584,3.7,3.7,0,0,0,.847,2.631,3.26,3.26,0,0,0,2.487.9,7.39,7.39,0,0,0,1.74-.205V9.4H77.619Z" transform="translate(1488 821)" fill="#060501"/>
      <path id="Path_54" data-name="Path 54" d="M1.178,13V4.434h1V12.1H5.953V13Zm6.229,0V4.434h1V13Zm8.121,0H10.752V4.434h4.775v.885H11.748v2.76H15.3v.879H11.748v3.152h3.779Zm5.666-4.488h2.912v4.166a9.362,9.362,0,0,1-1.383.328,10.528,10.528,0,0,1-1.629.111,3.948,3.948,0,0,1-3.029-1.157A4.561,4.561,0,0,1,16.98,8.717a4.9,4.9,0,0,1,.536-2.341,3.626,3.626,0,0,1,1.544-1.535,5,5,0,0,1,2.361-.53,6.453,6.453,0,0,1,2.555.5l-.387.879A5.707,5.707,0,0,0,21.357,5.2a3.2,3.2,0,0,0-2.443.932,3.616,3.616,0,0,0-.879,2.584,3.7,3.7,0,0,0,.847,2.631,3.26,3.26,0,0,0,2.487.9,7.39,7.39,0,0,0,1.74-.205V9.4H21.193ZM30.938,13H26.162V4.434h4.775v.885H27.158v2.76h3.551v.879H27.158v3.152h3.779Z" transform="translate(1605 705)" fill="#060501"/>
      <path id="Path_45" data-name="Path 45" d="M6.563,13,5.5,10.275H2.063L1.008,13H0L3.387,4.4h.838L7.594,13ZM5.186,9.379l-1-2.654q-.193-.5-.4-1.236a11.1,11.1,0,0,1-.369,1.236L2.414,9.379ZM15.463,13H14.326L9.645,5.811H9.6q.094,1.266.094,2.32V13h-.92V4.434H9.9l4.67,7.16h.047q-.012-.158-.053-1.017T14.531,9.35V4.434h.932Zm4.992,0h-1V5.318H16.746V4.434h6.422v.885H20.455Zm11.479,0h-.984L29.221,7.264q-.123-.381-.275-.961a5.6,5.6,0,0,1-.158-.7,13.343,13.343,0,0,1-.41,1.693L26.7,13h-.984L23.438,4.434h1.055l1.354,5.291a19.678,19.678,0,0,1,.41,2.016,14.557,14.557,0,0,1,.469-2.1L28.26,4.434h1.055l1.611,5.256A15.978,15.978,0,0,1,31.4,11.74a17.568,17.568,0,0,1,.422-2.027L33.17,4.434h1.055Zm8.408,0H35.566V4.434h4.775v.885H36.563v2.76h3.551v.879H36.563v3.152h3.779Zm2.895-3.562V13h-1V4.434h2.35a3.7,3.7,0,0,1,2.329.6,2.188,2.188,0,0,1,.753,1.816,2.275,2.275,0,0,1-1.723,2.3L48.275,13H47.1L45.023,9.438Zm0-.855H44.6a2.358,2.358,0,0,0,1.547-.419,1.559,1.559,0,0,0,.492-1.257,1.43,1.43,0,0,0-.5-1.225,2.714,2.714,0,0,0-1.608-.375H43.236ZM55.09,6.93a2.4,2.4,0,0,1-.888,2,4.021,4.021,0,0,1-2.54.7H50.654V13h-1V4.434h2.221Q55.09,4.434,55.09,6.93ZM50.654,8.775h.9a3.332,3.332,0,0,0,1.916-.428,1.576,1.576,0,0,0,.592-1.371A1.478,1.478,0,0,0,53.5,5.711a2.908,2.908,0,0,0-1.734-.416H50.654Z" transform="translate(1369 457)" fill="#060501"/>
      <path id="Path_44" data-name="Path 44" d="M1.178,13V4.434h1V12.1H5.953V13Zm6.229,0V4.434h1V13Zm7.137,0L11.637,5.406H11.59q.082.9.082,2.145V13h-.92V4.434h1.5L14.965,11.5h.047l2.736-7.066h1.488V13h-1V7.48q0-.949.082-2.062h-.047L15.346,13Zm7.043-8.566h2.42a4.566,4.566,0,0,1,2.467.51,1.8,1.8,0,0,1,.762,1.611,1.862,1.862,0,0,1-.425,1.257,2.045,2.045,0,0,1-1.239.642v.059q1.951.334,1.951,2.051a2.2,2.2,0,0,1-.776,1.793A3.3,3.3,0,0,1,24.574,13H21.586Zm1,3.668h1.641a2.671,2.671,0,0,0,1.518-.331A1.278,1.278,0,0,0,26.2,6.654a1.13,1.13,0,0,0-.516-1.04,3.222,3.222,0,0,0-1.641-.319H22.582Zm0,.844V12.15h1.787a2.545,2.545,0,0,0,1.562-.4,1.482,1.482,0,0,0,.524-1.257,1.331,1.331,0,0,0-.536-1.172,2.866,2.866,0,0,0-1.632-.375ZM35.83,4.434V9.977a3.019,3.019,0,0,1-.885,2.3,3.393,3.393,0,0,1-2.432.838,3.244,3.244,0,0,1-2.394-.844,3.129,3.129,0,0,1-.847-2.32V4.434h1v5.59a2.2,2.2,0,0,0,.586,1.646,2.364,2.364,0,0,0,1.723.574,2.28,2.28,0,0,0,1.67-.577,2.22,2.22,0,0,0,.586-1.655V4.434Zm3.264,5V13h-1V4.434h2.35a3.7,3.7,0,0,1,2.329.6,2.188,2.188,0,0,1,.753,1.816,2.275,2.275,0,0,1-1.723,2.3L44.133,13H42.955L40.881,9.438Zm0-.855h1.365a2.358,2.358,0,0,0,1.547-.419A1.559,1.559,0,0,0,42.5,6.906,1.43,1.43,0,0,0,42,5.682a2.714,2.714,0,0,0-1.608-.375H39.094Zm10.189-.07H52.2v4.166a9.362,9.362,0,0,1-1.383.328,10.528,10.528,0,0,1-1.629.111,3.948,3.948,0,0,1-3.029-1.157A4.561,4.561,0,0,1,45.07,8.717a4.9,4.9,0,0,1,.536-2.341A3.626,3.626,0,0,1,47.15,4.841a5,5,0,0,1,2.361-.53,6.453,6.453,0,0,1,2.555.5l-.387.879A5.707,5.707,0,0,0,49.447,5.2,3.2,3.2,0,0,0,47,6.133a3.616,3.616,0,0,0-.879,2.584,3.7,3.7,0,0,0,.847,2.631,3.26,3.26,0,0,0,2.487.9,7.39,7.39,0,0,0,1.74-.205V9.4H49.283Z" transform="translate(1518 512)" fill="#060501"/>
      <path id="Path_46" data-name="Path 46" d="M2.174,13h-1V4.434H5.953v.885H2.174V8.453H5.725v.885H2.174Zm5.2,0V4.434h1V12.1h3.779V13Zm11,0H13.6V4.434h4.775v.885H14.6v2.76h3.551v.879H14.6v3.152h3.779Zm5.689,0L21.158,5.406h-.047q.082.9.082,2.145V13h-.92V4.434h1.5L24.486,11.5h.047L27.27,4.434h1.488V13h-1V7.48q0-.949.082-2.062H27.8L24.867,13Zm7.043,0V4.434h1V13Zm8.18-2.279a2.1,2.1,0,0,1-.82,1.764,3.557,3.557,0,0,1-2.227.633,5.577,5.577,0,0,1-2.344-.393v-.961a6.171,6.171,0,0,0,1.148.352,6.042,6.042,0,0,0,1.23.129,2.483,2.483,0,0,0,1.5-.378,1.24,1.24,0,0,0,.5-1.052,1.35,1.35,0,0,0-.179-.729,1.66,1.66,0,0,0-.6-.524,8.361,8.361,0,0,0-1.274-.545A4.068,4.068,0,0,1,34.521,8a2.238,2.238,0,0,1-.513-1.529A1.9,1.9,0,0,1,34.752,4.9a3.092,3.092,0,0,1,1.969-.586,5.8,5.8,0,0,1,2.35.469l-.311.867A5.31,5.31,0,0,0,36.7,5.2a2,2,0,0,0-1.236.34,1.12,1.12,0,0,0-.445.943,1.446,1.446,0,0,0,.164.729,1.545,1.545,0,0,0,.554.521,6.88,6.88,0,0,0,1.192.524A4.721,4.721,0,0,1,38.78,9.291,2.028,2.028,0,0,1,39.287,10.721ZM47.543,13h-1V8.969H42.035V13h-1V4.434h1V8.078h4.512V4.434h1ZM53.01,4.434h2.42a4.566,4.566,0,0,1,2.467.51,1.8,1.8,0,0,1,.762,1.611,1.862,1.862,0,0,1-.425,1.257,2.045,2.045,0,0,1-1.239.642v.059q1.951.334,1.951,2.051a2.2,2.2,0,0,1-.776,1.793A3.3,3.3,0,0,1,56,13H53.01Zm1,3.668h1.641a2.671,2.671,0,0,0,1.518-.331,1.278,1.278,0,0,0,.463-1.116,1.13,1.13,0,0,0-.516-1.04,3.222,3.222,0,0,0-1.641-.319H54.006Zm0,.844V12.15h1.787a2.545,2.545,0,0,0,1.562-.4,1.482,1.482,0,0,0,.524-1.257,1.331,1.331,0,0,0-.536-1.172,2.866,2.866,0,0,0-1.632-.375Zm7.775.492V13h-1V4.434h2.35a3.7,3.7,0,0,1,2.329.6,2.188,2.188,0,0,1,.753,1.816,2.275,2.275,0,0,1-1.723,2.3L66.82,13H65.643L63.568,9.438Zm0-.855h1.365a2.358,2.358,0,0,0,1.547-.419,1.559,1.559,0,0,0,.492-1.257,1.43,1.43,0,0,0-.5-1.225,2.714,2.714,0,0,0-1.608-.375H61.781ZM73.588,13l-1.066-2.725H69.088L68.033,13H67.025l3.387-8.6h.838L74.619,13ZM72.211,9.379l-1-2.654q-.193-.5-.4-1.236a11.1,11.1,0,0,1-.369,1.236L69.439,9.379ZM75.8,4.434h2.42a4.566,4.566,0,0,1,2.467.51,1.8,1.8,0,0,1,.762,1.611,1.862,1.862,0,0,1-.425,1.257,2.045,2.045,0,0,1-1.239.642v.059q1.951.334,1.951,2.051a2.2,2.2,0,0,1-.776,1.793A3.3,3.3,0,0,1,78.785,13H75.8Zm1,3.668h1.641a2.671,2.671,0,0,0,1.518-.331,1.278,1.278,0,0,0,.463-1.116,1.13,1.13,0,0,0-.516-1.04,3.222,3.222,0,0,0-1.641-.319H76.793Zm0,.844V12.15H78.58a2.545,2.545,0,0,0,1.562-.4,1.482,1.482,0,0,0,.524-1.257A1.331,1.331,0,0,0,80.13,9.32,2.866,2.866,0,0,0,78.5,8.945ZM88.957,13l-1.066-2.725H84.457L83.4,13H82.395l3.387-8.6h.838L89.988,13ZM87.58,9.379l-1-2.654q-.193-.5-.4-1.236a11.1,11.1,0,0,1-.369,1.236L84.809,9.379ZM97.857,13H96.721L92.039,5.811h-.047q.094,1.266.094,2.32V13h-.92V4.434h1.125l4.67,7.16h.047q-.012-.158-.053-1.017T96.926,9.35V4.434h.932Zm4.992,0h-1V5.318H99.141V4.434h6.422v.885H102.85Z" transform="translate(1325 556)" fill="#060501"/>
      <path id="Path_48" data-name="Path 48" d="M8.654,13H7.67L5.941,7.264q-.123-.381-.275-.961a5.6,5.6,0,0,1-.158-.7A13.343,13.343,0,0,1,5.1,7.3L3.422,13H2.438L.158,4.434H1.213L2.566,9.725a19.678,19.678,0,0,1,.41,2.016,14.557,14.557,0,0,1,.469-2.1L4.98,4.434H6.035L7.646,9.689a15.978,15.978,0,0,1,.475,2.051,17.568,17.568,0,0,1,.422-2.027L9.891,4.434h1.055Zm9.018,0-1.066-2.725H13.172L12.117,13H11.109L14.5,4.4h.838L18.7,13ZM16.295,9.379l-1-2.654q-.193-.5-.4-1.236a11.1,11.1,0,0,1-.369,1.236L13.523,9.379ZM19.881,13V4.434h1V12.1h3.779V13Zm6.229,0V4.434h1V12.1h3.779V13ZM39.773,8.705a4.716,4.716,0,0,1-1.04,3.234,3.656,3.656,0,0,1-2.892,1.178,3.7,3.7,0,0,1-2.921-1.157,4.754,4.754,0,0,1-1.028-3.267A4.7,4.7,0,0,1,32.924,5.45,3.729,3.729,0,0,1,35.854,4.3a3.649,3.649,0,0,1,2.883,1.172A4.711,4.711,0,0,1,39.773,8.705Zm-6.826,0a4.066,4.066,0,0,0,.741,2.64,3.027,3.027,0,0,0,4.3,0,4.122,4.122,0,0,0,.727-2.643A4.089,4.089,0,0,0,38,6.083a2.593,2.593,0,0,0-2.142-.894,2.644,2.644,0,0,0-2.165.9A4.024,4.024,0,0,0,32.947,8.705Zm16.172,0a4.716,4.716,0,0,1-1.04,3.234,3.656,3.656,0,0,1-2.892,1.178,3.7,3.7,0,0,1-2.921-1.157,4.754,4.754,0,0,1-1.028-3.267A4.7,4.7,0,0,1,42.27,5.45,3.729,3.729,0,0,1,45.2,4.3a3.649,3.649,0,0,1,2.883,1.172A4.711,4.711,0,0,1,49.119,8.705Zm-6.826,0a4.066,4.066,0,0,0,.741,2.64,3.027,3.027,0,0,0,4.3,0,4.122,4.122,0,0,0,.727-2.643,4.089,4.089,0,0,0-.724-2.622A2.593,2.593,0,0,0,45.2,5.189a2.644,2.644,0,0,0-2.165.9A4.024,4.024,0,0,0,42.293,8.705ZM57.721,13H56.584L51.9,5.811h-.047q.094,1.266.094,2.32V13h-.92V4.434h1.125l4.67,7.16h.047q-.012-.158-.053-1.017T56.789,9.35V4.434h.932Zm5.473-8.566h2.42a4.566,4.566,0,0,1,2.467.51,1.8,1.8,0,0,1,.762,1.611,1.862,1.862,0,0,1-.425,1.257,2.045,2.045,0,0,1-1.239.642v.059q1.951.334,1.951,2.051a2.2,2.2,0,0,1-.776,1.793A3.3,3.3,0,0,1,66.182,13H63.193Zm1,3.668H65.83a2.671,2.671,0,0,0,1.518-.331,1.278,1.278,0,0,0,.463-1.116,1.13,1.13,0,0,0-.516-1.04,3.222,3.222,0,0,0-1.641-.319H64.189Zm0,.844V12.15h1.787a2.545,2.545,0,0,0,1.562-.4,1.482,1.482,0,0,0,.524-1.257,1.331,1.331,0,0,0-.536-1.172,2.866,2.866,0,0,0-1.632-.375Zm7.775.492V13h-1V4.434h2.35a3.7,3.7,0,0,1,2.329.6A2.188,2.188,0,0,1,76.4,6.854a2.275,2.275,0,0,1-1.723,2.3L77,13H75.826L73.752,9.438Zm0-.855H73.33a2.358,2.358,0,0,0,1.547-.419,1.559,1.559,0,0,0,.492-1.257,1.43,1.43,0,0,0-.5-1.225,2.714,2.714,0,0,0-1.608-.375H71.965ZM83.771,13l-1.066-2.725H79.271L78.217,13H77.209L80.6,4.4h.838L84.8,13ZM82.395,9.379l-1-2.654q-.193-.5-.4-1.236a11.1,11.1,0,0,1-.369,1.236L79.623,9.379ZM85.98,4.434H88.4a4.566,4.566,0,0,1,2.467.51,1.8,1.8,0,0,1,.762,1.611A1.862,1.862,0,0,1,91.2,7.812a2.045,2.045,0,0,1-1.239.642v.059q1.951.334,1.951,2.051a2.2,2.2,0,0,1-.776,1.793A3.3,3.3,0,0,1,88.969,13H85.98Zm1,3.668h1.641a2.671,2.671,0,0,0,1.518-.331A1.278,1.278,0,0,0,90.6,6.654a1.13,1.13,0,0,0-.516-1.04,3.222,3.222,0,0,0-1.641-.319H86.977Zm0,.844V12.15h1.787a2.545,2.545,0,0,0,1.562-.4,1.482,1.482,0,0,0,.524-1.257,1.331,1.331,0,0,0-.536-1.172,2.866,2.866,0,0,0-1.632-.375ZM99.141,13l-1.066-2.725H94.641L93.586,13H92.578l3.387-8.6H96.8l3.369,8.6ZM97.764,9.379l-1-2.654q-.193-.5-.4-1.236A11.1,11.1,0,0,1,96,6.725L94.992,9.379ZM108.041,13H106.9l-4.682-7.189h-.047q.094,1.266.094,2.32V13h-.92V4.434h1.125l4.67,7.16h.047q-.012-.158-.053-1.017t-.029-1.228V4.434h.932Zm4.992,0h-1V5.318h-2.713V4.434h6.422v.885h-2.713Z" transform="translate(1325 643)" fill="#060501"/>
      <path id="Path_47" data-name="Path 47" d="M.589,1.717H1.8a2.283,2.283,0,0,1,1.233.255.9.9,0,0,1,.381.806.931.931,0,0,1-.212.628,1.023,1.023,0,0,1-.62.321v.029q.976.167.976,1.025a1.1,1.1,0,0,1-.388.9A1.652,1.652,0,0,1,2.083,6H.589Zm.5,1.834h.82a1.335,1.335,0,0,0,.759-.166A.639.639,0,0,0,2.9,2.827a.565.565,0,0,0-.258-.52,1.611,1.611,0,0,0-.82-.16H1.087Zm0,.422v1.6H1.98a1.273,1.273,0,0,0,.781-.2.741.741,0,0,0,.262-.628.665.665,0,0,0-.268-.586,1.433,1.433,0,0,0-.816-.187Zm3.888.246V6h-.5V1.717H5.651a1.849,1.849,0,0,1,1.165.3,1.094,1.094,0,0,1,.376.908,1.138,1.138,0,0,1-.861,1.148L7.494,6H6.905L5.868,4.219Zm0-.428h.683a1.179,1.179,0,0,0,.773-.209.779.779,0,0,0,.246-.628.715.715,0,0,0-.25-.612,1.357,1.357,0,0,0-.8-.187H4.975ZM11.42,1.717V4.488a1.51,1.51,0,0,1-.442,1.151,1.7,1.7,0,0,1-1.216.419,1.622,1.622,0,0,1-1.2-.422,1.565,1.565,0,0,1-.423-1.16V1.717h.5V4.512a1.1,1.1,0,0,0,.293.823,1.182,1.182,0,0,0,.861.287,1.14,1.14,0,0,0,.835-.289,1.11,1.11,0,0,0,.293-.828V1.717ZM14.971,4.86a1.051,1.051,0,0,1-.41.882,1.778,1.778,0,0,1-1.113.316,2.788,2.788,0,0,1-1.172-.2v-.48a3.085,3.085,0,0,0,.574.176,3.021,3.021,0,0,0,.615.064,1.241,1.241,0,0,0,.75-.189.62.62,0,0,0,.252-.526.675.675,0,0,0-.089-.365.83.83,0,0,0-.3-.262,4.181,4.181,0,0,0-.637-.272,2.034,2.034,0,0,1-.854-.507,1.119,1.119,0,0,1-.256-.765.951.951,0,0,1,.372-.788,1.546,1.546,0,0,1,.984-.293,2.9,2.9,0,0,1,1.175.234l-.155.434A2.655,2.655,0,0,0,13.676,2.1a1,1,0,0,0-.618.17.56.56,0,0,0-.223.472.723.723,0,0,0,.082.365.772.772,0,0,0,.277.261,3.44,3.44,0,0,0,.6.262,2.36,2.36,0,0,1,.927.516A1.014,1.014,0,0,1,14.971,4.86Zm3.293,0a1.051,1.051,0,0,1-.41.882,1.778,1.778,0,0,1-1.113.316,2.788,2.788,0,0,1-1.172-.2v-.48a3.085,3.085,0,0,0,.574.176,3.021,3.021,0,0,0,.615.064,1.241,1.241,0,0,0,.75-.189.62.62,0,0,0,.252-.526.675.675,0,0,0-.089-.365.83.83,0,0,0-.3-.262,4.181,4.181,0,0,0-.637-.272A2.034,2.034,0,0,1,15.88,3.5a1.119,1.119,0,0,1-.256-.765A.951.951,0,0,1,16,1.948a1.546,1.546,0,0,1,.984-.293,2.9,2.9,0,0,1,1.175.234L18,2.323A2.655,2.655,0,0,0,16.969,2.1a1,1,0,0,0-.618.17.56.56,0,0,0-.223.472.723.723,0,0,0,.082.365.772.772,0,0,0,.277.261,3.44,3.44,0,0,0,.6.262,2.36,2.36,0,0,1,.927.516A1.014,1.014,0,0,1,18.264,4.86ZM21.527,6H19.14V1.717h2.388v.442h-1.89v1.38h1.775v.439H19.638V5.555h1.89Zm.949,0V1.717h.5V5.549h1.89V6Zm5.531-1.14a1.051,1.051,0,0,1-.41.882,1.778,1.778,0,0,1-1.113.316,2.788,2.788,0,0,1-1.172-.2v-.48a3.085,3.085,0,0,0,.574.176,3.021,3.021,0,0,0,.615.064,1.241,1.241,0,0,0,.75-.189.62.62,0,0,0,.252-.526.675.675,0,0,0-.089-.365.83.83,0,0,0-.3-.262,4.181,4.181,0,0,0-.637-.272,2.034,2.034,0,0,1-.854-.507,1.119,1.119,0,0,1-.256-.765.951.951,0,0,1,.372-.788,1.546,1.546,0,0,1,.984-.293A2.9,2.9,0,0,1,27.9,1.89l-.155.434A2.655,2.655,0,0,0,26.713,2.1a1,1,0,0,0-.618.17.56.56,0,0,0-.223.472.723.723,0,0,0,.082.365.772.772,0,0,0,.277.261,3.44,3.44,0,0,0,.6.262,2.36,2.36,0,0,1,.927.516A1.014,1.014,0,0,1,28.008,4.86ZM32.276,2.1a1.4,1.4,0,0,0-1.115.47,1.9,1.9,0,0,0-.409,1.288,1.934,1.934,0,0,0,.394,1.3,1.4,1.4,0,0,0,1.124.458,3.836,3.836,0,0,0,1.022-.161v.437a3.149,3.149,0,0,1-1.1.167,1.859,1.859,0,0,1-1.46-.574,2.365,2.365,0,0,1-.514-1.632,2.576,2.576,0,0,1,.248-1.16,1.777,1.777,0,0,1,.715-.768,2.164,2.164,0,0,1,1.1-.27A2.654,2.654,0,0,1,33.46,1.9l-.211.428A2.27,2.27,0,0,0,32.276,2.1Zm1.808,3.589a.436.436,0,0,1,.089-.3.324.324,0,0,1,.256-.1.347.347,0,0,1,.265.1.418.418,0,0,1,.1.3.411.411,0,0,1-.1.293.384.384,0,0,1-.511.01A.4.4,0,0,1,34.084,5.689Zm3.8-1.471V6h-.5V1.717h1.175a1.849,1.849,0,0,1,1.165.3,1.094,1.094,0,0,1,.376.908,1.138,1.138,0,0,1-.861,1.148L40.4,6h-.589L38.774,4.219Zm0-.428h.683a1.179,1.179,0,0,0,.773-.209.779.779,0,0,0,.246-.628.715.715,0,0,0-.25-.612,1.357,1.357,0,0,0-.8-.187h-.647Zm3.067,1.9a.436.436,0,0,1,.089-.3.324.324,0,0,1,.256-.1.347.347,0,0,1,.265.1.418.418,0,0,1,.1.3.411.411,0,0,1-.1.293.384.384,0,0,1-.511.01A.4.4,0,0,1,40.948,5.689Z" transform="translate(1340 589)" fill="#060501"/>
    </g>
  </g>
</svg>
