<svg xmlns="http://www.w3.org/2000/svg" width="29.43" height="29.593" viewBox="0 0 29.43 29.593">
  <path id="Combined-Shape" d="M94.169,21.367a1.371,1.371,0,0,0,1.886-.484,1.388,1.388,0,0,0-.481-1.9c-5.461-3.259-14.1-3.566-19.3-1.979a1.383,1.383,0,0,0,.8,2.649C81.6,18.274,89.426,18.535,94.169,21.367Zm-.155,4.2a1.158,1.158,0,0,0-.377-1.586,21.363,21.363,0,0,0-16.53-1.966,1.153,1.153,0,0,0,.667,2.207,19.221,19.221,0,0,1,14.663,1.724A1.144,1.144,0,0,0,94.014,25.563Zm-1.8,4.029a.925.925,0,0,0-.3-1.268c-3.879-2.383-8.687-2.938-14.292-1.649a.922.922,0,0,0,.408,1.8c5.122-1.177,9.471-.7,12.927,1.427A.914.914,0,0,0,92.213,29.592ZM85.465,8.25a14.8,14.8,0,1,1-14.715,14.8A14.755,14.755,0,0,1,85.465,8.25Z" transform="translate(-70.75 -8.25)" fill="#1ed760" fill-rule="evenodd"/>
</svg>
