<svg xmlns="http://www.w3.org/2000/svg" width="166.05" height="39.488" viewBox="0 0 166.05 39.488">
  <g id="Group_95" data-name="Group 95" transform="translate(-1428.228 -37.512)">
    <path id="Path" d="M157.4.5H9.039L8.55.5,8.267.5,7.826.511l-.2,0A12.707,12.707,0,0,0,5.672.686a6.249,6.249,0,0,0-1.783.587,6.019,6.019,0,0,0-1.515,1.1,5.832,5.832,0,0,0-1.1,1.512A6.179,6.179,0,0,0,.689,5.675,12.458,12.458,0,0,0,.515,7.626c0,.134-.007.273-.009.458,0,.082,0,.082,0,.165C.5,8.4.5,8.4.5,8.544v23.18c0,.111,0,.111,0,.215,0,.153,0,.153,0,.3,0,.081,0,.081,0,.162,0,.185.005.324.009.463A12.452,12.452,0,0,0,.689,34.82a6.16,6.16,0,0,0,.586,1.785,5.789,5.789,0,0,0,1.1,1.508,5.853,5.853,0,0,0,1.512,1.1,6.282,6.282,0,0,0,1.785.591,12.855,12.855,0,0,0,1.953.171c.323.007.625.011.923.011l.489,0H157.948l.55,0c.3,0,.609,0,.92-.011a12.7,12.7,0,0,0,1.951-.171,6.389,6.389,0,0,0,1.794-.592,5.852,5.852,0,0,0,1.513-1.1,5.968,5.968,0,0,0,1.1-1.5,6.228,6.228,0,0,0,.581-1.792,12.642,12.642,0,0,0,.179-1.941c0-.145,0-.3,0-.464v-.474l0-.219c0-.241,0-.435,0-.878V9.649c0-.551,0-.794-.008-1.105V8.079c0-.17,0-.319,0-.45a12.857,12.857,0,0,0-.181-1.96,6.214,6.214,0,0,0-.578-1.779,6.041,6.041,0,0,0-2.614-2.615,6.36,6.36,0,0,0-1.8-.589,12.526,12.526,0,0,0-1.945-.171l-.178,0-.289,0L158.5.5l-.543,0Z" transform="translate(1427.728 37.012)" fill="#2e2e2e" fill-rule="evenodd"/>
    <g id="Group_91" data-name="Group 91">
      <path id="Combined-Shape" d="M89.58,18.8a1.1,1.1,0,0,0,1.516-.389,1.116,1.116,0,0,0-.387-1.525c-4.39-2.621-11.338-2.867-15.517-1.591a1.112,1.112,0,0,0,.642,2.13C79.476,16.31,85.766,16.519,89.58,18.8Zm-.125,3.373a.931.931,0,0,0-.3-1.275,17.177,17.177,0,0,0-13.291-1.581.927.927,0,0,0,.536,1.775,15.454,15.454,0,0,1,11.79,1.386A.92.92,0,0,0,89.455,22.17ZM88.007,25.41a.744.744,0,0,0-.245-1.02c-3.118-1.916-6.985-2.362-11.491-1.326a.741.741,0,0,0,.328,1.445c4.118-.946,7.615-.56,10.394,1.147A.735.735,0,0,0,88.007,25.41ZM82.581,8.25a11.9,11.9,0,1,1-11.831,11.9A11.864,11.864,0,0,1,82.581,8.25Zm20.358,10.983c2.489.609,3.5,1.553,3.5,3.262,0,2.021-1.536,3.327-3.912,3.327a6.647,6.647,0,0,1-4.5-1.737.134.134,0,0,1-.013-.187l1.118-1.338a.133.133,0,0,1,.092-.047.14.14,0,0,1,.1.032,4.678,4.678,0,0,0,3.253,1.351c1.073,0,1.74-.467,1.74-1.218,0-.678-.33-1.057-2.285-1.51-2.3-.558-3.625-1.281-3.625-3.323,0-1.9,1.541-3.235,3.746-3.235a6.013,6.013,0,0,1,3.923,1.367.134.134,0,0,1,.025.183l-1,1.414a.132.132,0,0,1-.088.055.135.135,0,0,1-.1-.025,4.629,4.629,0,0,0-2.791-1.067c-.951,0-1.59.459-1.59,1.142C100.533,18.4,100.9,18.743,102.939,19.233Zm10.606,2.289a2.237,2.237,0,0,0-2.149-2.449,2.281,2.281,0,0,0-2.194,2.449,2.281,2.281,0,0,0,2.194,2.449A2.213,2.213,0,0,0,113.545,21.522Zm-1.725-4.315c1.915,0,3.853,1.482,3.853,4.315s-1.938,4.314-3.853,4.314a3.277,3.277,0,0,1-2.572-1.171v3.3a.134.134,0,0,1-.134.135h-1.83a.134.134,0,0,1-.134-.135V17.51a.134.134,0,0,1,.134-.135h1.83a.134.134,0,0,1,.134.135v.941A3.2,3.2,0,0,1,111.82,17.207Zm8.819,6.779a2.285,2.285,0,0,0,2.285-2.433,2.341,2.341,0,0,0-2.315-2.465,2.279,2.279,0,0,0-2.27,2.434A2.333,2.333,0,0,0,120.639,23.986Zm0-6.779a4.323,4.323,0,1,1-4.4,4.346A4.3,4.3,0,0,1,120.639,17.207Zm9.646.168a.133.133,0,0,1,.133.135v1.581a.133.133,0,0,1-.133.135h-2.013v3.8c0,.6.261.868.848.868a2.293,2.293,0,0,0,1.073-.261.134.134,0,0,1,.131.006.135.135,0,0,1,.064.115v1.505a.135.135,0,0,1-.068.117,3.322,3.322,0,0,1-1.713.429,2.182,2.182,0,0,1-2.432-2.491v-4.09h-.88a.134.134,0,0,1-.133-.135V17.51a.134.134,0,0,1,.133-.135h.88V15.306a.134.134,0,0,1,.135-.135h1.829a.134.134,0,0,1,.134.135v2.069Zm7.013.008h3.125a.132.132,0,0,1,.125.087l2.137,5.606,1.95-5.6a.135.135,0,0,1,.127-.09h1.9a.134.134,0,0,1,.11.058.137.137,0,0,1,.014.125l-3.173,8.245c-.659,1.7-1.405,2.335-2.756,2.335a3.834,3.834,0,0,1-1.953-.5.134.134,0,0,1-.058-.174l.62-1.368a.132.132,0,0,1,.186-.063,2.1,2.1,0,0,0,1.008.288c.4,0,.691-.132.987-.795l-2.615-6.307h-1.708v6.309a.135.135,0,0,1-.135.135h-1.829a.134.134,0,0,1-.134-.135V19.225h-.879a.134.134,0,0,1-.134-.135V17.5a.134.134,0,0,1,.134-.135h.879v-.389c0-1.809.893-2.766,2.583-2.766a5,5,0,0,1,1.52.22.135.135,0,0,1,.1.129v1.55a.134.134,0,0,1-.056.109.133.133,0,0,1-.12.019,3.072,3.072,0,0,0-1.031-.191c-.639,0-.924.333-.924,1.081Zm-4.065-.008a.135.135,0,0,1,.134.135v8.024a.135.135,0,0,1-.134.135H131.4a.134.134,0,0,1-.134-.135V17.51a.134.134,0,0,1,.134-.135Zm-.906-3.654a1.319,1.319,0,1,1-1.312,1.319A1.315,1.315,0,0,1,132.326,13.721Zm16.1,4.452h-.335v.43h.335c.167,0,.267-.082.267-.215S148.593,18.174,148.426,18.174Zm.218.613.363.513H148.7l-.328-.47h-.281v.47h-.257V17.94h.6c.314,0,.52.161.52.433A.4.4,0,0,1,148.644,18.786Zm-.286-1.3a1.169,1.169,0,1,0,1.151,1.165A1.155,1.155,0,0,0,148.358,17.488Zm-.007,2.467a1.3,1.3,0,1,1,1.294-1.3A1.285,1.285,0,0,1,148.351,19.955Z" transform="translate(1428.606 37.109)" fill="#797979" fill-rule="evenodd"/>
      <path id="LISTEN-ON" d="M19.657,22.981H15.75v-6.1h1.188v4.966h2.72Zm2.832,0h-1.2v-6.1h1.2ZM28.8,18.334l-1.067.327a1.042,1.042,0,0,0-1.11-.861.864.864,0,0,0-.955.775c0,.336.215.6.663.688l.852.164a1.862,1.862,0,0,1,1.7,1.8,2,2,0,0,1-2.2,1.885A2.225,2.225,0,0,1,24.255,21.2l1.1-.293a1.225,1.225,0,0,0,1.334,1.145c.637,0,.99-.318.99-.749,0-.353-.267-.628-.74-.723l-.852-.172a1.777,1.777,0,0,1-1.6-1.747,2.021,2.021,0,0,1,2.126-1.911A2.009,2.009,0,0,1,28.8,18.334Zm6.43-.327H33.3v4.974H32.1V18.007H30.177V16.879h5.052Zm5.449,4.974H36.856v-6.1h3.821V18H38.044v1.394h2.384v1.059H38.044v1.411h2.634Zm7.135,0H46.565l-2.771-4.329v4.329H42.606v-6.1h1.48l2.539,4.036V16.879h1.188Zm5.759-3.055a1.91,1.91,0,1,0,3.813,0,1.91,1.91,0,1,0-3.813,0Zm-1.231.009a3.137,3.137,0,1,1,6.274,0,3.137,3.137,0,1,1-6.274,0Zm13.323,3.047H64.417l-2.771-4.329v4.329H60.458v-6.1h1.48l2.539,4.036V16.879h1.188Z" transform="translate(1427.918 37.216)" fill="#797979" fill-rule="evenodd"/>
    </g>
  </g>
</svg>
