<svg xmlns="http://www.w3.org/2000/svg" width="29.953" height="24.328" viewBox="0 0 29.953 24.328">
  <path id="Path_32" data-name="Path 32" d="M26.874-8a13.2,13.2,0,0,0,3.079-3.174,12.307,12.307,0,0,1-3.535.95,6.122,6.122,0,0,0,2.7-3.383,12.086,12.086,0,0,1-3.9,1.482,6.124,6.124,0,0,0-4.485-1.939A6.136,6.136,0,0,0,14.6-7.921a6.93,6.93,0,0,0,.152,1.406A17.45,17.45,0,0,1,2.091-12.938a6.092,6.092,0,0,0-.836,3.1A6.135,6.135,0,0,0,3.991-4.728a6.182,6.182,0,0,1-2.775-.779v.076A6.14,6.14,0,0,0,6.139.594,6.491,6.491,0,0,1,4.523.8a7.737,7.737,0,0,1-1.159-.1A6.15,6.15,0,0,0,9.1,4.965,12.3,12.3,0,0,1,1.482,7.588,12.7,12.7,0,0,1,0,7.512a17.348,17.348,0,0,0,9.427,2.756c11.29,0,17.467-9.351,17.467-17.467C26.894-7.464,26.894-7.731,26.874-8Z" transform="translate(0 14.06)" fill="#bcbbb4"/>
</svg>
